<svg xmlns="http://www.w3.org/2000/svg" viewBox="0 0 334.17 208.72"><defs><style>.cls-1{fill:#b881f3;stroke:#b881f3;}.cls-1,.cls-2,.cls-3,.cls-4,.cls-7{stroke-linecap:round;stroke-miterlimit:10;}.cls-2{fill:#a466c2;stroke:#a466c2;}.cls-3,.cls-4,.cls-7{fill:none;}.cls-3{stroke:#e5e2e9;stroke-width:6px;}.cls-4{stroke:#6b59af;stroke-width:9px;}.cls-5{fill:#f4e4d5;}.cls-6{fill:#e4c9c2;}.cls-7{stroke:#b79f9a;stroke-width:4px;}.cls-8{fill:#9d817b;}.cls-9{fill:#e5e2e9;}</style></defs><g id="flag"><path class="cls-1" d="M367,68a206.71,206.71,0,0,1-21,65,45.18,45.18,0,0,0-16-15c-15.94-8.64-33.57-4.47-44-2-20.39,4.82-23.8,12.24-34.55,12.06a116.1,116.1,0,0,1,.05-29.56A125.84,125.84,0,0,1,269.5,49c9.58-.77,15.36-4.17,25.5-6,25.42-4.45,46.91,6.85,51,9A80.26,80.26,0,0,1,367,68Z" transform="translate(-33.36 -39.5)"/><path class="cls-2" d="M251.5,98.5a116.1,116.1,0,0,0-.05,29.56c-.47,0-.95,0-1.45-.06-8.53-.63-20.08-5.61-33-25l29-57a66,66,0,0,0,16,3,53,53,0,0,0,7.5,0A125.84,125.84,0,0,0,251.5,98.5Z" transform="translate(-33.36 -39.5)"/><path class="cls-3" d="M284.5,64.5c-1.64,2.36-3.34,5-5,8-1.57,2.8-2.89,5.49-4,8a66.09,66.09,0,0,1,33,0" transform="translate(-33.36 -39.5)"/><path class="cls-3" d="M311.5,63.5a56.59,56.59,0,0,0-10,40" transform="translate(-33.36 -39.5)"/><line class="cls-4" x1="214.64" y1="4.5" x2="151.64" y2="123.5"/></g><g id="bao"><path class="cls-5" d="M203,167c-11.07,37.7-60.67,47.7-86,48a126.85,126.85,0,0,1-19-1.29C78.57,205.89,63.78,193.25,56.79,178c-7.69-16.78-8.84-43.06,4.27-66A81.28,81.28,0,0,1,86.68,85c-.41-.27-8.45-5.82-7.47-14a12,12,0,0,1,1.19-4,9.42,9.42,0,0,1,5.31,2.21A12.69,12.69,0,0,0,89,74a47.08,47.08,0,0,1,1-7,46.41,46.41,0,0,1,3-9h0a10.66,10.66,0,0,1,11,4c-.48-3.61.53-4.66,1-5,2.35-1.73,8,1.16,11,5a14.81,14.81,0,0,1,3,8c9.68.61,33.2,3.44,54,21C191.06,106.24,211.85,136.86,203,167Z" transform="translate(-33.36 -39.5)"/><path class="cls-6" d="M117,215c-37.4,2.91-69.74-13.4-80-39-7.7-19.21-1.09-38.91,1-45,9.61-28,32.55-41.9,40-46-6.19-3.43-8.21-10-6-14,1.53-2.76,5-4.11,8-4,.13,0,.27,0,.4,0a12,12,0,0,0-1.19,4c-1,8.18,7.06,13.73,7.47,14A97.8,97.8,0,0,0,68,116c-4.08,11-13.46,36.45-1,62C81.14,207,112.66,214.1,117,215Z" transform="translate(-33.36 -39.5)"/><path class="cls-6" d="M93,58a46.41,46.41,0,0,0-3,9,47.08,47.08,0,0,0-1,7,12.69,12.69,0,0,1-3.29-4.76,9.21,9.21,0,0,1,1,1A9.58,9.58,0,0,1,87,63,9.7,9.7,0,0,1,93,58Z" transform="translate(-33.36 -39.5)"/><path class="cls-7" d="M141,144c3,4,8,5,11,3,2.76-1.82,3-5.51,3-6" transform="translate(-33.36 -39.5)"/><ellipse class="cls-8" cx="169.38" cy="124.43" rx="4.38" ry="7.48" transform="translate(-60.32 9.93) rotate(-15.39)"/><ellipse class="cls-8" cx="109.37" cy="130.41" rx="4.38" ry="7.48" transform="translate(-54.75 -18.04) rotate(-10.21)"/></g><g id="title"><path class="cls-9" d="M152.05,223a1.5,1.5,0,0,1,3,0v12.17a6.78,6.78,0,0,1,5.83-2.74c5,0,7.6,3.57,7.6,7.78,0,4.57-3,8.06-8.28,8.06s-8.14-3.52-8.14-7.92Zm8.17,22.72c3.28,0,5.15-2.27,5.15-5.29s-1.87-5.4-5.18-5.4-5.11,2.23-5.11,5.4S157,245.67,160.22,245.67Z" transform="translate(-33.36 -39.5)"/><path class="cls-9" d="M195.07,243.72c0,1.12.29,1.55,1.08,1.59.58.07.9.75.86,1.37s-.5,1.18-1.65,1.18a2.84,2.84,0,0,1-3.06-2.59c-1.22,1.66-3.28,2.7-6.23,2.7-4.64,0-7.63-2.81-7.63-7.45,0-5.15,3.46-8.14,8.42-8.14s8.21,3.1,8.21,8Zm-8.21-8.89a5.13,5.13,0,0,0-5.47,5.51c0,3.38,2.23,5.15,5.19,5.15a5.25,5.25,0,0,0,5.61-5.37A5,5,0,0,0,186.86,234.83Z" transform="translate(-33.36 -39.5)"/><path class="cls-9" d="M214.48,248.22c-5,0-8.36-3.24-8.36-7.92s3.35-7.92,8.36-7.92,8.35,3.24,8.35,8S219.48,248.22,214.48,248.22Zm0-13.28a5.37,5.37,0,1,0,5.25,5.4A5.07,5.07,0,0,0,214.48,234.94Z" transform="translate(-33.36 -39.5)"/><path class="cls-9" d="M242.56,235.08c-1.3-.1-2.6-.14-4-.14s-3.27.07-4.39.18a1.18,1.18,0,0,1-1.26-1.22,1.15,1.15,0,0,1,1-1.15,42,42,0,0,1,5.43-.33,48.33,48.33,0,0,1,5.76.36,1.28,1.28,0,0,1,1.19,1.33,2,2,0,0,1-.54,1.34l-9.54,9.68a35.27,35.27,0,0,0,4.32.29,25.23,25.23,0,0,0,4.68-.47,1.21,1.21,0,0,1,1.51,1.19,1.23,1.23,0,0,1-.94,1.15,24.53,24.53,0,0,1-6.19.61,23,23,0,0,1-6.48-.83,1.1,1.1,0,0,1-.61-1,1.7,1.7,0,0,1,.65-1.33Z" transform="translate(-33.36 -39.5)"/><path class="cls-9" d="M256.85,227.56a1.82,1.82,0,0,1,3.63,0,1.82,1.82,0,0,1-3.63,0Zm.29,16.7V234.15c0-1,.57-1.4,1.51-1.4a1.29,1.29,0,0,1,1.47,1.4v9.5c0,1.12.33,1.51,1.05,1.55a1.29,1.29,0,0,1,.9,1.4c-.07.65-.51,1.26-1.69,1.26C258.4,247.86,257.14,246.64,257.14,244.26Z" transform="translate(-33.36 -39.5)"/></g></svg>