<svg xmlns="http://www.w3.org/2000/svg" viewBox="0 0 301.29 320.21"><defs><style>.cls-1,.cls-2,.cls-4{fill:#fff;}.cls-1,.cls-2,.cls-3{stroke:#fff;stroke-miterlimit:10;}.cls-2,.cls-3{stroke-linecap:round;}.cls-2{stroke-width:6px;}.cls-3{fill:none;stroke-width:5px;}</style></defs><g id="Layer_2" data-name="Layer 2"><path class="cls-1" d="M343.76,226.31a15,15,0,0,1-6.26,5.19H325c-2.1-.47-4.56-1.12-7.47-2a167,167,0,0,1-19-7v133h-188v-133c-9.19,3.52-17,6.14-23,8-1.16.36-2.25.7-3.28,1H66.49c-1.6-2.65-3.07-5.75-2-7s2.87.47,6,0c5-.75,5.69-5.64,12-8a18.66,18.66,0,0,1,5-1c11.14-1.43,18.56-15.28,33-28a103.8,103.8,0,0,1,13.86-10.27L202.2,131.7l9.16,5.74L254.5,164.5q.84,1.51,1.5,2.91c4.54,9.42,3.83,15.43,2.5,19.09-3.7,10.2-14.86,9.73-37,27-9.42,7.35-13.32,12.06-16,16-.45.67-.88,1.34-1.29,2a61.49,61.49,0,0,0-7.71,19c-9.1-.5-14.6-3.35-18-6-2.92-2.27-4.26-4.38-8-6a23.46,23.46,0,0,0-13-1c-12.25,2.6-20.18,20.61-23,33-4.59,20.17-.5,46.84,12,51,5.15,1.72,11-.62,12-1,8.62-3.4,8.38-10.31,15-14,8.5-4.74,13.9,3.85,31,4,16.85.15,25.34-8.09,31-3,4.74,4.26.82,11.86,6,16,4.54,3.63,13.1,2.2,18-1,20.35-13.31,8.68-77.61-10-82-2.8-.66-7.65-.35-12,1-7.84,2.43-9.74,7-17,9a25.4,25.4,0,0,1-13,0,52,52,0,0,1,6.73-19c.39-.66.82-1.33,1.27-2,15.19-22.5,42.58-20.71,50-40a27.87,27.87,0,0,0,1.17-14.94Z" transform="translate(-51.86 -35.79)"/><path class="cls-1" d="M258.5,186.5c-3.7,10.2-14.86,9.73-37,27-9.42,7.35-13.32,12.06-16,16-.45.67-.88,1.34-1.29,2H53.5L64.61,224l14.53-9.75,55.22-37.06L202.2,131.7l.3-.2,8.86,5.94,44.64,30C260.54,176.83,259.83,182.84,258.5,186.5Z" transform="translate(-51.86 -35.79)"/><path class="cls-1" d="M351.5,231.5H214.23c.39-.66.82-1.33,1.27-2,15.19-22.5,42.58-20.71,50-40a27.87,27.87,0,0,0,1.17-14.94l77.09,51.75Z" transform="translate(-51.86 -35.79)"/><circle class="cls-1" cx="183.64" cy="235.71" r="6"/><line class="cls-2" x1="117.02" y1="227.72" x2="116.34" y2="240.7"/><line class="cls-2" x1="123.1" y1="234.97" x2="110.12" y2="234.29"/><path class="cls-3" d="M193,281a13.83,13.83,0,0,0,9,5c7,.78,11.63-4.56,12-5" transform="translate(-51.86 -35.79)"/></g><g id="Layer_3" data-name="Layer 3"><path class="cls-4" d="M87.74,114c6.31,5.7,3.86,12.28-.45,17.06a23.21,23.21,0,0,1-6.66,5.24,1.56,1.56,0,0,1-1.91-.18,1.74,1.74,0,0,1,.36-2.84,20.71,20.71,0,0,0,5.71-4.54c3-3.35,4.45-8,.28-11.78l-1.28-1.15c.83,2.88,0,5.77-2.32,8.38-4.12,4.56-10,5.07-14.61.92s-5-10.62-.56-15.51,11-5,15.34-1.09Zm-18.91-2.11a7,7,0,0,0,10.45,9.42,6.8,6.8,0,0,0-.48-9.94A6.89,6.89,0,0,0,68.83,111.93Z" transform="translate(-51.86 -35.79)"/><path class="cls-4" d="M113.17,89.56c.86,1.21,1.51,1.46,2.4.89a1.63,1.63,0,0,1,2,.82c.39.72.37,1.68-.89,2.57a3.78,3.78,0,0,1-5.32-.46c-.06,2.74-1.49,5.46-4.7,7.73-5.06,3.58-10.47,2.82-14.05-2.23-4-5.61-2.5-11.52,2.9-15.35s11.32-3,15.09,2.38ZM97.39,86.2c-3.57,2.52-4.35,6.49-1.72,10.21s6.4,3.88,9.61,1.61c3.57-2.52,4.45-6.68,2-10.16C104.69,84.21,100.8,83.79,97.39,86.2Z" transform="translate(-51.86 -35.79)"/><path class="cls-4" d="M148,66.94c-1.49-3.85-4-4.22-6-3.46s-3.66,2.76-2.18,6.61l3.49,9a2,2,0,0,1-3.71,1.44l-3.49-9c-1.49-3.85-4-4.23-6-3.45s-3.58,2.72-2.09,6.57l3.49,9a1.82,1.82,0,0,1-1.19,2.52,1.77,1.77,0,0,1-2.53-1.08l-3.49-9.05c-2.61-6.76.42-9.83,3.91-11.18,3.09-1.2,5.9-.84,8,1.43.06-3.16,2-5.31,5-6.47,3.58-1.38,7.84-1,10.42,5.65l3.49,9A1.82,1.82,0,0,1,154,77.07,1.77,1.77,0,0,1,151.49,76Z" transform="translate(-51.86 -35.79)"/><path class="cls-4" d="M171,64.74c1,3,3.88,4.65,8.26,4.05A10.73,10.73,0,0,0,185,66.32a1.6,1.6,0,0,1,2.46,1.31,1.79,1.79,0,0,1-.47,1.51c-1.19,1.23-3.84,2.71-7.79,3.25-6.95,1-11.55-2.63-12.38-8.62s2.28-11,9.42-12c5.32-.73,9.44,1.37,10,5.84.64,4.66-2.54,7.28-7.58,8A12.6,12.6,0,0,1,171,64.74Zm-.45-3.28a14.19,14.19,0,0,0,7.07.73c3.52-.48,5-2,4.77-4.1s-2.34-3.31-5.67-2.85C172.39,55.83,170.66,58.39,170.55,61.46Z" transform="translate(-51.86 -35.79)"/><path class="cls-4" d="M202.71,70.75a1.82,1.82,0,0,1-1.83-2l2.18-31.31a1.82,1.82,0,0,1,2.09-1.68,1.86,1.86,0,0,1,1.88,2l-1.12,16.08c1.1-1.89,3.89-3.29,7.48-3,5.31.37,8.42,3.43,7.9,10.8l-.59,8.48a1.84,1.84,0,0,1-2.09,1.77,1.91,1.91,0,0,1-1.88-2l.59-8.52c.31-4.36-1.4-6.74-5.33-7s-5.9,1.89-6.47,5.17l-.67,9.63A1.87,1.87,0,0,1,202.71,70.75Z" transform="translate(-51.86 -35.79)"/><path class="cls-4" d="M243.6,77.67c-6.41-1.87-9.48-7.27-7.74-13.26s7.24-8.89,13.65-7,9.48,7.26,7.72,13.3S250,79.53,243.6,77.67Zm5-17c-4-1.17-7.55.85-8.75,5a7,7,0,1,0,13.46,3.93C254.46,65.43,252.57,61.83,248.56,60.66Z" transform="translate(-51.86 -35.79)"/><path class="cls-4" d="M288.78,76.73a2,2,0,0,1,3.5,1.9l-4.13,7.64c-3.31,6.12-8.47,6.88-13.54,4.14s-7.25-7.48-3.94-13.6l4.13-7.64a1.79,1.79,0,0,1,2.63-.71,1.86,1.86,0,0,1,.88,2.61l-4.07,7.51c-2,3.76-1.29,6.73,2.13,8.58s6.31.84,8.34-2.91Z" transform="translate(-51.86 -35.79)"/><path class="cls-4" d="M300.12,107.41a22.24,22.24,0,0,1-5-5.7,1.71,1.71,0,0,1,.19-2,1.68,1.68,0,0,1,2.84.17,21,21,0,0,0,4.24,4.83c2.22,1.83,4.44,2.62,5.82,1,2.91-3.51-9.35-9.18-4.6-14.91,3.4-4.1,8.1-.89,10.39,1a16.45,16.45,0,0,1,4.46,5.38,1.73,1.73,0,0,1-.2,2,1.61,1.61,0,0,1-2.69-.06,17.21,17.21,0,0,0-3.84-4.55c-1.29-1.07-3.49-2.71-4.81-1.12-2.51,3,9.56,8.93,4.48,15.06C308.1,112.46,303.27,110,300.12,107.41Z" transform="translate(-51.86 -35.79)"/><path class="cls-4" d="M325,119c-2,2.46-1.93,5.75.86,9.16a10.78,10.78,0,0,0,5.11,3.58,1.6,1.6,0,0,1,.16,2.78,1.78,1.78,0,0,1-1.53.39c-1.67-.37-4.32-1.86-6.85-4.94-4.44-5.42-3.8-11.22.88-15.06s10.54-3.79,15.11,1.77c3.4,4.16,3.76,8.77.28,11.63-3.64,3-7.53,1.64-10.76-2.3A12.65,12.65,0,0,1,325,119Zm2.56-2.09a14.2,14.2,0,0,0,3.08,6.41c2.25,2.74,4.39,3.23,6,1.92s1.59-3.73-.54-6.33C333.34,115.55,330.25,115.42,327.58,116.93Z" transform="translate(-51.86 -35.79)"/></g></svg>