<?xml version="1.0" encoding="utf-8"?>
<svg xmlns="http://www.w3.org/2000/svg" xmlns:xlink="http://www.w3.org/1999/xlink" style="margin: auto; background: rgb(33, 34, 38); display: block; z-index: 1; position: relative; shape-rendering: auto;" width="1996" height="984" preserveAspectRatio="xMidYMid" viewBox="0 0 1996 984">
<g transform="translate(998,492) scale(1,1) translate(-998,-492)"><path id="path0" d="M 462.8141717580236 472.2580739884552
c 0 23.8963422248653 -5.846977352892573 6.863842979482587 -12.710820332375159 6.863842979482587
S 437.3925310932733 496.1544162133205 437.3925310932733 472.2580739884552
s 5.846977352892573 -6.863842979482587 12.710820332375159 -6.863842979482587
S 462.8141717580236 448.3617317635899 462.8141717580236 472.2580739884552
z" fill="none" stroke="none"></path>
<circle cx="0" cy="0" r="2.6268777627059725" fill="#00ffff">
  <animateMotion begin="-5.5001888404354045s" dur="10s" repeatCount="indefinite">
    <mpath xlink:href="#path0"></mpath>
  </animateMotion>
</circle><path id="path1" d="M 479.14256162983514 898.355519262035
c 0 30.206290019918754 -7.3909007495545875 8.676274792955388 -16.067175542509975 8.676274792955388
S 447.0082105448152 928.5618092819539 447.0082105448152 898.355519262035
s 7.3909007495545875 -8.676274792955388 16.067175542509975 -8.676274792955388
S 479.14256162983514 868.1492292421162 479.14256162983514 898.355519262035
z" fill="none" stroke="none"></path>
<circle cx="0" cy="0" r="2.5546558210010284" fill="#b881f3">
  <animateMotion begin="-6.438677858800275s" dur="10s" repeatCount="indefinite">
    <mpath xlink:href="#path1"></mpath>
  </animateMotion>
</circle><path id="path2" d="M 1011.7693778153716 913.4188770006173
c 0 25.478658754214127 -6.23413990794601 7.318338152806186 -13.552478060752195 7.318338152806186
S 984.6644216938673 938.8975357548314 984.6644216938673 913.4188770006173
s 6.23413990794601 -7.318338152806186 13.552478060752195 -7.318338152806186
S 1011.7693778153716 887.9402182464031 1011.7693778153716 913.4188770006173
z" fill="none" stroke="none"></path>
<circle cx="0" cy="0" r="1.6069087472544714" fill="#39f2d6">
  <animateMotion begin="-3.240223224476204s" dur="10s" repeatCount="indefinite">
    <mpath xlink:href="#path2"></mpath>
  </animateMotion>
</circle><path id="path3" d="M 970.9856838985402 795.2787532079592
c 0 26.205199950570783 -6.411910626203489 7.5270255177171395 -13.938936143920628 7.5270255177171395
S 943.107811610699 821.48395315853 943.107811610699 795.2787532079592
s 6.411910626203489 -7.5270255177171395 13.938936143920628 -7.5270255177171395
S 970.9856838985402 769.0735532573884 970.9856838985402 795.2787532079592
z" fill="none" stroke="none"></path>
<circle cx="0" cy="0" r="2.5494647859893114" fill="#00ffff">
  <animateMotion begin="-3.153438443878125s" dur="10s" repeatCount="indefinite">
    <mpath xlink:href="#path3"></mpath>
  </animateMotion>
</circle><path id="path4" d="M 1938.034191082383 963.5433113810305
c 0 34.177242012244236 -8.362516662570398 9.816867386495685 -18.179384049066083 9.816867386495685
S 1901.6754229842506 997.7205533932748 1901.6754229842506 963.5433113810305
s 8.362516662570398 -9.816867386495685 18.179384049066083 -9.816867386495685
S 1938.034191082383 929.3660693687863 1938.034191082383 963.5433113810305
z" fill="none" stroke="none"></path>
<circle cx="0" cy="0" r="1.9305390758972885" fill="#b881f3">
  <animateMotion begin="-6.7385788348878535s" dur="10s" repeatCount="indefinite">
    <mpath xlink:href="#path4"></mpath>
  </animateMotion>
</circle><path id="path5" d="M 645.0946530639618 350.8290522846081
c 0 37.372268319635324 -9.144278418634174 10.734587708831423 -19.8788661274656 10.734587708831423
S 605.3369208090306 388.20132060424345 605.3369208090306 350.8290522846081
s 9.144278418634174 -10.734587708831423 19.8788661274656 -10.734587708831423
S 645.0946530639618 313.4567839649728 645.0946530639618 350.8290522846081
z" fill="none" stroke="none"></path>
<circle cx="0" cy="0" r="2.155641389309602" fill="#b881f3">
  <animateMotion begin="-5.163098048163704s" dur="10s" repeatCount="indefinite">
    <mpath xlink:href="#path5"></mpath>
  </animateMotion>
</circle><path id="path6" d="M 686.5236865809471 585.6860132763035
c 0 32.180239328177706 -7.873888346256246 9.243260232561681 -17.117148578817925 9.243260232561681
S 652.2893894233113 617.8662526044811 652.2893894233113 585.6860132763035
s 7.873888346256246 -9.243260232561681 17.117148578817925 -9.243260232561681
S 686.5236865809471 553.5057739481258 686.5236865809471 585.6860132763035
z" fill="none" stroke="none"></path>
<circle cx="0" cy="0" r="2.188002613166044" fill="#39f2d6">
  <animateMotion begin="-9.502554233100133s" dur="10s" repeatCount="indefinite">
    <mpath xlink:href="#path6"></mpath>
  </animateMotion>
</circle><path id="path7" d="M 1683.340249935056 539.2784200793593
c 0 26.13446028218447 -6.3946019839387525 7.506706676797667 -13.90130866073642 7.506706676797667
S 1655.537632613583 565.4128803615438 1655.537632613583 539.2784200793593
s 6.3946019839387525 -7.506706676797667 13.90130866073642 -7.506706676797667
S 1683.340249935056 513.1439597971748 1683.340249935056 539.2784200793593
z" fill="none" stroke="none"></path>
<circle cx="0" cy="0" r="2.289025341208288" fill="#b881f3">
  <animateMotion begin="-0.6525722646516208s" dur="10s" repeatCount="indefinite">
    <mpath xlink:href="#path7"></mpath>
  </animateMotion>
</circle><path id="path8" d="M 1591.5399800407165 805.4580726425074
c 0 29.982446237591034 -7.336130462389295 8.611979238457 -15.948109700846294 8.611979238457
S 1559.6437606390239 835.4405188800985 1559.6437606390239 805.4580726425074
s 7.336130462389295 -8.611979238457 15.948109700846294 -8.611979238457
S 1591.5399800407165 775.4756264049164 1591.5399800407165 805.4580726425074
z" fill="none" stroke="none"></path>
<circle cx="0" cy="0" r="1.7318642402821443" fill="#ffff1e">
  <animateMotion begin="-7.6317713816458665s" dur="10s" repeatCount="indefinite">
    <mpath xlink:href="#path8"></mpath>
  </animateMotion>
</circle><path id="path9" d="M 924.9050228355193 458.68647609624
c 0 28.54997413692111 -6.985631969672186 8.200524486136915 -15.186156455809101 8.200524486136915
S 894.5327099239012 487.2364502331611 894.5327099239012 458.68647609624
s 6.985631969672186 -8.200524486136915 15.186156455809101 -8.200524486136915
S 924.9050228355193 430.13650195931893 924.9050228355193 458.68647609624
z" fill="none" stroke="none"></path>
<circle cx="0" cy="0" r="2.3043376695908973" fill="#b881f3">
  <animateMotion begin="-3.3244726560950455s" dur="10s" repeatCount="indefinite">
    <mpath xlink:href="#path9"></mpath>
  </animateMotion>
</circle><path id="path10" d="M 698.7721408785961 554.2008921483884
c 0 31.114406674754388 -7.6130995055250095 8.937116810833707 -16.550216316358718 8.937116810833707
S 665.6717082458787 585.3152988231428 665.6717082458787 554.2008921483884
s 7.6130995055250095 -8.937116810833707 16.550216316358718 -8.937116810833707
S 698.7721408785961 523.0864854736341 698.7721408785961 554.2008921483884
z" fill="none" stroke="none"></path>
<circle cx="0" cy="0" r="2.4045250266181464" fill="#b881f3">
  <animateMotion begin="-4.223287902861356s" dur="10s" repeatCount="indefinite">
    <mpath xlink:href="#path10"></mpath>
  </animateMotion>
</circle><path id="path11" d="M 1007.8996533871948 205.3883325309911
c 0 30.426077448894475 -7.444678524729499 8.739405224682455 -16.184083749411954 8.739405224682455
S 975.531485888371 235.81440997988557 975.531485888371 205.3883325309911
s 7.444678524729499 -8.739405224682455 16.184083749411954 -8.739405224682455
S 1007.8996533871948 174.96225508209665 1007.8996533871948 205.3883325309911
z" fill="none" stroke="none"></path>
<circle cx="0" cy="0" r="2.0974661225381586" fill="#ffff1e">
  <animateMotion begin="-6.675214622206054s" dur="10s" repeatCount="indefinite">
    <mpath xlink:href="#path11"></mpath>
  </animateMotion>
</circle><path id="path12" d="M 1484.9714985629432 403.4844868083604
c 0 21.619262040859898 -5.289819435529549 6.209788033012949 -11.499607468542498 6.209788033012949
S 1461.9722836258582 425.10374884922027 1461.9722836258582 403.4844868083604
s 5.289819435529549 -6.209788033012949 11.499607468542498 -6.209788033012949
S 1484.9714985629432 381.8652247675005 1484.9714985629432 403.4844868083604
z" fill="none" stroke="none"></path>
<circle cx="0" cy="0" r="2.018751652846363" fill="#00ffff">
  <animateMotion begin="-7.9506434427903505s" dur="10s" repeatCount="indefinite">
    <mpath xlink:href="#path12"></mpath>
  </animateMotion>
</circle><path id="path13" d="M 201.9031240504125 153.80069184263408
c 0 23.525232782321922 -5.756173978653236 6.757247714071191 -12.513421692724426 6.757247714071191
S 176.87628066496364 177.325924624956 176.87628066496364 153.80069184263408
s 5.756173978653236 -6.757247714071191 12.513421692724426 -6.757247714071191
S 201.9031240504125 130.27545906031216 201.9031240504125 153.80069184263408
z" fill="none" stroke="none"></path>
<circle cx="0" cy="0" r="2.863293132217426" fill="#b881f3">
  <animateMotion begin="-3.7255137407541783s" dur="10s" repeatCount="indefinite">
    <mpath xlink:href="#path13"></mpath>
  </animateMotion>
</circle><path id="path14" d="M 1841.82820279959 410.3116162720364
c 0 33.522808308054415 -8.202389266864378 9.628891748058184 -17.831281014922563 9.628891748058184
S 1806.1656407697449 443.83442458009085 1806.1656407697449 410.3116162720364
s 8.202389266864378 -9.628891748058184 17.831281014922563 -9.628891748058184
S 1841.82820279959 376.788807963982 1841.82820279959 410.3116162720364
z" fill="none" stroke="none"></path>
<circle cx="0" cy="0" r="1.9780109303710698" fill="#00ffff">
  <animateMotion begin="-4.614535526756773s" dur="10s" repeatCount="indefinite">
    <mpath xlink:href="#path14"></mpath>
  </animateMotion>
</circle><path id="path15" d="M 242.55093672317088 29.616889996484367
c 0 36.16877240835728 -8.849806014810822 10.388902713038792 -19.238708727849613 10.388902713038792
S 204.07351926747168 65.78566240484164 204.07351926747168 29.616889996484367
s 8.849806014810822 -10.388902713038792 19.238708727849613 -10.388902713038792
S 242.55093672317088 -6.55188241187291 242.55093672317088 29.616889996484367
z" fill="none" stroke="none"></path>
<circle cx="0" cy="0" r="2.9636732618031605" fill="#39f2d6">
  <animateMotion begin="-8.142220726319305s" dur="10s" repeatCount="indefinite">
    <mpath xlink:href="#path15"></mpath>
  </animateMotion>
</circle><path id="path16" d="M 601.989727546142 214.65693561468723
c 0 36.559919714538744 -8.945512270578627 10.501253535027086 -19.44676580560571 10.501253535027086
S 563.0961959349305 251.21685532922598 563.0961959349305 214.65693561468723
s 8.945512270578627 -10.501253535027086 19.44676580560571 -10.501253535027086
S 601.989727546142 178.09701590014848 601.989727546142 214.65693561468723
z" fill="none" stroke="none"></path>
<circle cx="0" cy="0" r="2.6493021635060092" fill="#39f2d6">
  <animateMotion begin="-6.997191676750618s" dur="10s" repeatCount="indefinite">
    <mpath xlink:href="#path16"></mpath>
  </animateMotion>
</circle><path id="path17" d="M 1628.9632670844526 273.9580622188264
c 0 36.870206366725824 -9.021433472709509 10.590378424485078 -19.611811897194585 10.590378424485078
S 1589.7396432900632 310.8282685855522 1589.7396432900632 273.9580622188264
s 9.021433472709509 -10.590378424485078 19.611811897194585 -10.590378424485078
S 1628.9632670844526 237.08785585210057 1628.9632670844526 273.9580622188264
z" fill="none" stroke="none"></path>
<circle cx="0" cy="0" r="1.6669137176817808" fill="#b881f3">
  <animateMotion begin="-1.1801237969594491s" dur="10s" repeatCount="indefinite">
    <mpath xlink:href="#path17"></mpath>
  </animateMotion>
</circle><path id="path18" d="M 88.41980680713726 684.0814091113043
c 0 34.48600260813034 -8.438064467946786 9.905553940633183 -18.34361840857997 9.905553940633183
S 51.73256998997732 718.5674117194346 51.73256998997732 684.0814091113043
s 8.438064467946786 -9.905553940633183 18.34361840857997 -9.905553940633183
S 88.41980680713726 649.595406503174 88.41980680713726 684.0814091113043
z" fill="none" stroke="none"></path>
<circle cx="0" cy="0" r="2.1440840841369537" fill="#ffff1e">
  <animateMotion begin="-9.406354773210484s" dur="10s" repeatCount="indefinite">
    <mpath xlink:href="#path18"></mpath>
  </animateMotion>
</circle><path id="path19" d="M 1374.5501234480407 584.8916084062106
c 0 28.784224271929975 -7.042948492067971 8.267809099384142 -15.310757591452113 8.267809099384142
S 1343.9286082651365 613.6758326781405 1343.9286082651365 584.8916084062106
s 7.042948492067971 -8.267809099384142 15.310757591452113 -8.267809099384142
S 1374.5501234480407 556.1073841342807 1374.5501234480407 584.8916084062106
z" fill="none" stroke="none"></path>
<circle cx="0" cy="0" r="2.845177439475675" fill="#ffff1e">
  <animateMotion begin="-8.854540384291456s" dur="10s" repeatCount="indefinite">
    <mpath xlink:href="#path19"></mpath>
  </animateMotion>
</circle><path id="path20" d="M 644.8039132914764 852.6950408278256
c 0 25.139338498647565 -6.1511147390307865 7.22087382407962 -13.371988563110406 7.22087382407962
S 618.0599361652555 877.8343793264731 618.0599361652555 852.6950408278256
s 6.1511147390307865 -7.22087382407962 13.371988563110406 -7.22087382407962
S 644.8039132914764 827.555702329178 644.8039132914764 852.6950408278256
z" fill="none" stroke="none"></path>
<circle cx="0" cy="0" r="1.9863252505744047" fill="#b881f3">
  <animateMotion begin="-5.410008452076285s" dur="10s" repeatCount="indefinite">
    <mpath xlink:href="#path20"></mpath>
  </animateMotion>
</circle><path id="path21" d="M 1293.8300631098978 313.9182178566901
c 0 19.043269225238202 -4.659523321068922 5.469875202993952 -10.129398524062873 5.469875202993952
S 1273.571266061772 332.9614870819283 1273.571266061772 313.9182178566901
s 4.659523321068922 -5.469875202993952 10.129398524062873 -5.469875202993952
S 1293.8300631098978 294.8749486314519 1293.8300631098978 313.9182178566901
z" fill="none" stroke="none"></path>
<circle cx="0" cy="0" r="2.29919708060911" fill="#39f2d6">
  <animateMotion begin="-9.888637107502724s" dur="10s" repeatCount="indefinite">
    <mpath xlink:href="#path21"></mpath>
  </animateMotion>
</circle><path id="path22" d="M 1872.6838629137178 639.9583023484605
c 0 32.83754439430954 -8.03471830924595 9.43206062389742 -17.46677893314337 9.43206062389742
S 1837.750305047431 672.7958467427701 1837.750305047431 639.9583023484605
s 8.03471830924595 -9.43206062389742 17.46677893314337 -9.43206062389742
S 1872.6838629137178 607.1207579541509 1872.6838629137178 639.9583023484605
z" fill="none" stroke="none"></path>
<circle cx="0" cy="0" r="2.990238073747863" fill="#00ffff">
  <animateMotion begin="-7.485414703203541s" dur="10s" repeatCount="indefinite">
    <mpath xlink:href="#path22"></mpath>
  </animateMotion>
</circle><path id="path23" d="M 1528.3332969310623 602.3739550416506
c 0 36.455220455589824 -8.919894366793253 10.471180343626864 -19.391074710420117 10.471180343626864
S 1489.551147510222 638.8291754972404 1489.551147510222 602.3739550416506
s 8.919894366793253 -10.471180343626864 19.391074710420117 -10.471180343626864
S 1528.3332969310623 565.9187345860607 1528.3332969310623 602.3739550416506
z" fill="none" stroke="none"></path>
<circle cx="0" cy="0" r="1.6646385529705494" fill="#39f2d6">
  <animateMotion begin="-1.2204435574365635s" dur="10s" repeatCount="indefinite">
    <mpath xlink:href="#path23"></mpath>
  </animateMotion>
</circle><path id="path24" d="M 1849.8159901562349 396.89443113496213
c 0 20.793216146684124 -5.0877018231248385 5.972519531494377 -11.060221354619216 5.972519531494377
S 1827.6955474469964 417.68764728164626 1827.6955474469964 396.89443113496213
s 5.0877018231248385 -5.972519531494377 11.060221354619216 -5.972519531494377
S 1849.8159901562349 376.101214988278 1849.8159901562349 396.89443113496213
z" fill="none" stroke="none"></path>
<circle cx="0" cy="0" r="2.4496913195551784" fill="#00ffff">
  <animateMotion begin="-1.5801616166005705s" dur="10s" repeatCount="indefinite">
    <mpath xlink:href="#path24"></mpath>
  </animateMotion>
</circle><path id="path25" d="M 333.7454835155856 295.18066077604794
c 0 22.28622815676781 -5.453013272400633 6.401363406731179 -11.854376679131812 6.401363406731179
S 310.036730157322 317.4668889328158 310.036730157322 295.18066077604794
s 5.453013272400633 -6.401363406731179 11.854376679131812 -6.401363406731179
S 333.7454835155856 272.8944326192801 333.7454835155856 295.18066077604794
z" fill="none" stroke="none"></path>
<circle cx="0" cy="0" r="2.145371924449468" fill="#39f2d6">
  <animateMotion begin="-4.260592500670157s" dur="10s" repeatCount="indefinite">
    <mpath xlink:href="#path25"></mpath>
  </animateMotion>
</circle><path id="path26" d="M 1437.796964926581 183.48825345942802
c 0 32.223348636486 -7.884436368501894 9.255642693458746 -17.14007906196064 9.255642693458746
S 1403.5168068026596 215.71160209591403 1403.5168068026596 183.48825345942802
s 7.884436368501894 -9.255642693458746 17.14007906196064 -9.255642693458746
S 1437.796964926581 151.26490482294201 1437.796964926581 183.48825345942802
z" fill="none" stroke="none"></path>
<circle cx="0" cy="0" r="1.7737429693088496" fill="#b881f3">
  <animateMotion begin="-2.0086189095982654s" dur="10s" repeatCount="indefinite">
    <mpath xlink:href="#path26"></mpath>
  </animateMotion>
</circle><path id="path27" d="M 1790.1026000308482 295.0252219393531
c 0 32.34433261732065 -7.9140388318976065 9.29039341135806 -17.204432243255667 9.29039341135806
S 1755.6937355443367 327.3695545566738 1755.6937355443367 295.0252219393531
s 7.9140388318976065 -9.29039341135806 17.204432243255667 -9.29039341135806
S 1790.1026000308482 262.68088932203244 1790.1026000308482 295.0252219393531
z" fill="none" stroke="none"></path>
<circle cx="0" cy="0" r="1.5074347908697119" fill="#b881f3">
  <animateMotion begin="-5.433650184573091s" dur="10s" repeatCount="indefinite">
    <mpath xlink:href="#path27"></mpath>
  </animateMotion>
</circle><path id="path28" d="M 1810.3622215080463 638.5045747178686
c 0 36.70423754338319 -8.98082407976397 10.542706528418575 -19.523530608182543 10.542706528418575
S 1771.3151602916814 675.2088122612519 1771.3151602916814 638.5045747178686
s 8.98082407976397 -10.542706528418575 19.523530608182543 -10.542706528418575
S 1810.3622215080463 601.8003371744854 1810.3622215080463 638.5045747178686
z" fill="none" stroke="none"></path>
<circle cx="0" cy="0" r="1.8749446566760863" fill="#39f2d6">
  <animateMotion begin="-7.299631803706759s" dur="10s" repeatCount="indefinite">
    <mpath xlink:href="#path28"></mpath>
  </animateMotion>
</circle></g>
</svg>