<svg xmlns="http://www.w3.org/2000/svg" xmlns:xlink="http://www.w3.org/1999/xlink" viewBox="0 0 390.49 416.44"><defs><style>.cls-1,.cls-35{fill:none;}.cls-2{fill:#bda1b4;stroke:#bda1b4;}.cls-2,.cls-3,.cls-32,.cls-33,.cls-34,.cls-35,.cls-36,.cls-37,.cls-38,.cls-4{stroke-miterlimit:10;}.cls-3{fill:#dac4d3;stroke:#dac4d3;}.cls-4{fill:#c9b1c1;stroke:#c9b1c1;}.cls-5{fill:#7fffdd;}.cls-6{fill:#6f556a;}.cls-7{isolation:isolate;}.cls-8{clip-path:url(#clip-path);}.cls-9{fill:#6abcb3;}.cls-10{clip-path:url(#clip-path-2);}.cls-11{fill:#71c1b7;}.cls-12{fill:#74c4ba;}.cls-13{fill:#77c6bc;}.cls-14{clip-path:url(#clip-path-3);}.cls-15{fill:#92dbce;}.cls-16{fill:#8fd9cc;}.cls-17{fill:#8cd6ca;}.cls-18{fill:#88d3c8;}.cls-19{fill:#85d1c5;}.cls-20{fill:#82cec3;}.cls-21{fill:#7ecbc1;}.cls-22{fill:#7bc9be;}.cls-23{clip-path:url(#clip-path-4);}.cls-24{clip-path:url(#clip-path-5);}.cls-25{fill:#6dbeb5;}.cls-26{fill:#98e0d2;}.cls-27{clip-path:url(#clip-path-6);}.cls-28{clip-path:url(#clip-path-7);}.cls-29{clip-path:url(#clip-path-8);}.cls-30{clip-path:url(#clip-path-9);}.cls-31{clip-path:url(#clip-path-10);}.cls-32{fill:#7da3b3;stroke:#7da3b3;}.cls-33{fill:#a5c5d3;stroke:#a5c5d3;}.cls-34{fill:#8cb1c1;stroke:#8cb1c1;}.cls-35{stroke:#27556a;stroke-width:3px;}.cls-36{fill:#7d5ead;stroke:#7d5ead;}.cls-37{fill:#8c69c1;stroke:#8c69c1;}.cls-38{fill:#5b459b;stroke:#5b459b;}.cls-39{clip-path:url(#clip-path-11);}.cls-40{fill:#6fa3d6;}.cls-41{fill:#6da0d4;}.cls-42{fill:#6b9dd2;}.cls-43{fill:#6a9ad0;}.cls-44{fill:#6897ce;}.cls-45{fill:#6694cc;}.cls-46{fill:#74abdb;}.cls-47{fill:#75addd;}.cls-48{clip-path:url(#clip-path-12);}.cls-49{fill:#8dd5f8;}.cls-50{clip-path:url(#clip-path-13);}.cls-51{fill:#6795cd;}.cls-52{clip-path:url(#clip-path-14);}.cls-53{clip-path:url(#clip-path-15);}.cls-54{clip-path:url(#clip-path-16);}.cls-55{clip-path:url(#clip-path-17);}.cls-56{fill:#73aadb;}.cls-57{clip-path:url(#clip-path-18);}.cls-58{clip-path:url(#clip-path-19);}.cls-59{clip-path:url(#clip-path-20);}.cls-60{fill:#6796cd;}.cls-61{clip-path:url(#clip-path-21);}.cls-62{clip-path:url(#clip-path-22);}.cls-63{clip-path:url(#clip-path-23);}</style><clipPath id="clip-path" transform="translate(-25.01 -14)"><path class="cls-1" d="M145.49,300.15l-8.43-.19c3.47.08,7.76-.06,13.19-.43,12.38-.84,28.6-2.32,47.72-5.16l8.42.19c-19.11,2.84-35.34,4.32-47.71,5.16C153.25,300.09,149,300.23,145.49,300.15Z"/></clipPath><clipPath id="clip-path-2" transform="translate(-25.01 -14)"><path class="cls-1" d="M222.19,233.86l8.42.19a57.6,57.6,0,0,1,8.86.77l-8.43-.19A57.33,57.33,0,0,0,222.19,233.86Z"/></clipPath><clipPath id="clip-path-3" transform="translate(-25.01 -14)"><path class="cls-1" d="M241.21,304.82l-8.42-.19a24.07,24.07,0,0,1-3.87-.38,20.53,20.53,0,0,1-10.18-4.88,22.19,22.19,0,0,1-5.77-8.55l8.43.19a22,22,0,0,0,5.77,8.55,20.49,20.49,0,0,0,10.18,4.88A25,25,0,0,0,241.21,304.82Z"/></clipPath><clipPath id="clip-path-4" transform="translate(-25.01 -14)"><path class="cls-1" d="M230.06,310l-8.43-.19a27.31,27.31,0,0,0,16.73-5.6l8.42.19A27.3,27.3,0,0,1,230.06,310Z"/></clipPath><clipPath id="clip-path-5" transform="translate(-25.01 -14)"><path class="cls-1" d="M223.69,291.11l-8.42-.19a47.85,47.85,0,0,0,17.37-2.81c4.23-1.54,8.81-3.19,11.93-6.62,8.32-9.15,6.42-31.1-3.77-42-2-2.1-4.33-3.89-9.76-4.87l8.43.19c5.42,1,7.79,2.77,9.76,4.87,10.19,10.89,12.09,32.84,3.77,42-3.12,3.44-7.7,5.09-11.93,6.62A47.73,47.73,0,0,1,223.69,291.11Z"/></clipPath><clipPath id="clip-path-6" transform="translate(-25.01 -14)"><path class="cls-1" d="M119.11,381.17l-8.43-.19c3.15.07,7.61-.92,15.44-3.52,8.39-2.79,19.34-6.72,32-12.08l8.42.19c-12.71,5.36-23.65,9.29-32,12.08C126.71,380.25,122.25,381.24,119.11,381.17Z"/></clipPath><clipPath id="clip-path-7" transform="translate(-25.01 -14)"><path class="cls-1" d="M173.05,318.25l8.43.19a14,14,0,0,1,2,.19l-8.43-.19A14,14,0,0,0,173.05,318.25Z"/></clipPath><clipPath id="clip-path-8" transform="translate(-25.01 -14)"><path class="cls-1" d="M188,366.88l-8.43-.18a15.45,15.45,0,0,1-2.29-.23,13.91,13.91,0,0,1-4-1.36,15.23,15.23,0,0,1-5.39-4.87l8.43.19a15.18,15.18,0,0,0,5.38,4.87,13.86,13.86,0,0,0,4,1.36A14.07,14.07,0,0,0,188,366.88Z"/></clipPath><clipPath id="clip-path-9" transform="translate(-25.01 -14)"><path class="cls-1" d="M181.08,372.4l-8.42-.19a17.12,17.12,0,0,0,3.65-.3,19.65,19.65,0,0,0,11.32-7l8.42.19a19.6,19.6,0,0,1-11.31,7A16.66,16.66,0,0,1,181.08,372.4Z"/></clipPath><clipPath id="clip-path-10" transform="translate(-25.01 -14)"><path class="cls-1" d="M175,318.44l8.43.19a9.55,9.55,0,0,1,3.64,1.48c8.82,5.69,13.74,20.47,9.51,28.26-1.59,2.91-4.48,4.88-7.14,6.68a34.27,34.27,0,0,1-13.11,5.38l-8.43-.19a34.36,34.36,0,0,0,13.12-5.38c2.66-1.8,5.54-3.77,7.13-6.68,4.24-7.79-.69-22.57-9.51-28.26A9.55,9.55,0,0,0,175,318.44Z"/></clipPath><clipPath id="clip-path-11" transform="translate(-25.01 -14)"><path class="cls-1" d="M280.41,134.93l-13.65-.33c1.09-2.84,4.92-14.31,1.21-26.48a28.45,28.45,0,0,0-8.85-13.87l13.66.33a28.5,28.5,0,0,1,8.85,13.87C285.33,120.62,281.5,132.09,280.41,134.93Z"/></clipPath><clipPath id="clip-path-12" transform="translate(-25.01 -14)"><path class="cls-1" d="M259.67,109.43a32.55,32.55,0,0,0-4.5-9.44l13.65.33a32.28,32.28,0,0,1,4.5,9.44h0l-13.65-.33,13.65.33a40.77,40.77,0,0,1,1.45,14.43l-13.65-.34,13.65.34h0a49,49,0,0,1-1.75,10l-13.66-.33C260.61,129.52,262.69,119.65,259.67,109.43Z"/></clipPath><clipPath id="clip-path-13" transform="translate(-25.01 -14)"><path class="cls-1" d="M272.15,134.46l-13.65-.33c1.17-3.84,3.58-13.89.49-24.31a31.27,31.27,0,0,0-4.59-9.46l13.65.33a31.11,31.11,0,0,1,4.6,9.47C275.73,120.57,273.33,130.62,272.15,134.46Z"/></clipPath><clipPath id="clip-path-14" transform="translate(-25.01 -14)"><path class="cls-1" d="M295.08,128.25l2.55.06,5.63.14,5.48.13v0l-13.66-.34Z"/></clipPath><clipPath id="clip-path-15" transform="translate(-25.01 -14)"><path class="cls-1" d="M293.74,112.58l13.66.33a73.88,73.88,0,0,1,1.34,15.67l-5.48-.13-8.18-.2A73.88,73.88,0,0,0,293.74,112.58Z"/></clipPath><clipPath id="clip-path-16" transform="translate(-25.01 -14)"><path class="cls-1" d="M319.18,152.69l-13.66-.34c1.85-4.73,9.14-25.88,2.31-48.36-4.24-13.93-11.93-21.83-16.3-25.39l13.66.33c4.37,3.56,12.06,11.46,16.3,25.39C328.32,126.8,321,148,319.18,152.69Z"/></clipPath><clipPath id="clip-path-17" transform="translate(-25.01 -14)"><path class="cls-1" d="M291.59,151a87.18,87.18,0,0,0,3.49-22.68l13.66.34c0,1.62-.11,3.21-.23,4.74L294.86,133l13.65.33a87.64,87.64,0,0,1-3.26,17.93Z"/></clipPath><clipPath id="clip-path-18" transform="translate(-25.01 -14)"><path class="cls-1" d="M292.29,106.68a62.3,62.3,0,0,0-2.09-6l13.66.33c.78,1.92,1.48,3.91,2.09,6,.53,1.79,1,3.58,1.34,5.35L293.63,112C293.26,110.26,292.82,108.47,292.29,106.68Z"/></clipPath><clipPath id="clip-path-19" transform="translate(-25.01 -14)"><path class="cls-1" d="M290.2,100.73A55.59,55.59,0,0,0,284,89.5l13.65.33a54.34,54.34,0,0,1,4.77,8.1l-13.65-.33h0l13.65.33c.5,1,1,2.07,1.4,3.13Z"/></clipPath><clipPath id="clip-path-20" transform="translate(-25.01 -14)"><path class="cls-1" d="M304.39,151.56l-13.66-.33c2.13-7,6.49-25.23.88-44.17a56.79,56.79,0,0,0-8.34-17.2l13.65.33a56.87,56.87,0,0,1,8.35,17.21C310.88,126.34,306.52,144.59,304.39,151.56Z"/></clipPath><clipPath id="clip-path-21" transform="translate(-25.01 -14)"><path class="cls-1" d="M367.6,158.94,354,158.61c2.24-5.72,11.38-32,2.88-60C351.56,81.35,342,71.57,336.59,67.18l13.66.33c5.41,4.39,15,14.18,20.24,31.49C379,126.93,369.84,153.22,367.6,158.94Z"/></clipPath><clipPath id="clip-path-22" transform="translate(-25.01 -14)"><path class="cls-1" d="M350.22,157.22l-13.66-.33c2.73-9.18,7.79-31.58.91-54.82a71.51,71.51,0,0,0-10.25-21.28l13.66.34a71.14,71.14,0,0,1,10.24,21.28C358,125.64,353,148,350.22,157.22Z"/></clipPath><clipPath id="clip-path-23" transform="translate(-25.01 -14)"><path class="cls-1" d="M349.35,157.48l-13.66-.33c2.65-8.64,8-31.24,1.1-54.69a70,70,0,0,0-10.34-21.29l13.66.33a70.34,70.34,0,0,1,10.34,21.29C357.39,126.24,352,148.85,349.35,157.48Z"/></clipPath></defs><g id="fella2"><path class="cls-2" d="M310.37,348.82c-7.29.64-18.91,1.41-33.3,1.23-20.31-.25-28.67-2.18-34.53,3.7s-7.11,17.25-2.46,23.43c8.18,10.88,35.1,5.78,51.79-6.16A59.35,59.35,0,0,0,310.37,348.82Z" transform="translate(-25.01 -14)"/><path class="cls-3" d="M273.41,415.12c6.39,13,30.18,13.64,61.55,14.45,31.55.81,61.24,1.57,68-12.5,9.76-20.28-25.74-76.08-69.2-73.75C294.08,345.45,263.64,395.21,273.41,415.12Z" transform="translate(-25.01 -14)"/><circle class="cls-4" cx="315.06" cy="281.88" r="60.43"/><path class="cls-2" d="M361,350.68c-4.68,4.58,4,13.35,10.24,45.4,3.32,17.15,2.63,24,8.55,27.82,8.18,5.33,23,1.15,30.15-7.74,10.64-13.19,2.39-34.21-5.17-44.93C392.17,353.41,367.48,344.33,361,350.68Z" transform="translate(-25.01 -14)"/><path class="cls-5" d="M351.61,241.52c.61-1.92,2.82-8.07,9-11.56,7.31-4.14,17.18-2.84,24.64,3.41a46,46,0,0,1-7.85,3.34c-6,1.93-9.59,1.67-18.67,3.33C355.56,240.62,353.05,241.18,351.61,241.52Z" transform="translate(-25.01 -14)"/><path class="cls-5" d="M351.55,241.5c.89-1.81,3.55-7.78,1.52-14.56-2.4-8.05-10.43-13.95-20.13-14.6a47,47,0,0,0,3.34,7.85c3,5.55,5.77,7.84,11.18,15.33C349.33,238.11,350.75,240.26,351.55,241.5Z" transform="translate(-25.01 -14)"/><path class="cls-6" d="M296.19,289c.21-.48,2.35-5.12,7.4-6.17a10.76,10.76,0,0,1,11.1,4.94,23.6,23.6,0,0,0-18.5,1.23Z" transform="translate(-25.01 -14)"/><path class="cls-6" d="M364.84,294.32c-.16-.65-1.79-7-7.9-9.47a13.76,13.76,0,0,0-15.11,3.66,30.19,30.19,0,0,1,23,5.81Z" transform="translate(-25.01 -14)"/></g><g id="chat"><g class="cls-7"><g class="cls-7"><g class="cls-8"><g class="cls-7"><path class="cls-9" d="M198,294.37l8.42.19c-19.11,2.84-35.34,4.32-47.71,5.16-5.43.37-9.72.51-13.19.43l-8.43-.19c3.47.08,7.76-.06,13.19-.43,12.38-.84,28.6-2.32,47.72-5.16" transform="translate(-25.01 -14)"/></g></g></g><g class="cls-7"><g class="cls-10"><g class="cls-7"><path class="cls-11" d="M222.19,233.86l8.42.19.77,0-8.42-.19-.77,0" transform="translate(-25.01 -14)"/><path class="cls-12" d="M223,233.88l8.42.19c2.3.07,4.28.21,6,.43l-8.43-.19c-1.72-.21-3.7-.36-6-.43" transform="translate(-25.01 -14)"/><path class="cls-13" d="M229,234.31l8.43.19c.74.09,1.44.2,2.09.32l-8.43-.19c-.65-.12-1.34-.23-2.09-.32" transform="translate(-25.01 -14)"/></g></g></g><g class="cls-7"><g class="cls-14"><g class="cls-7"><path class="cls-15" d="M213,290.82l8.43.19a22.89,22.89,0,0,0,2.62,5l-8.42-.19a23.45,23.45,0,0,1-2.63-5" transform="translate(-25.01 -14)"/><path class="cls-16" d="M215.6,295.8,224,296a20.26,20.26,0,0,0,2.43,2.89l-8.42-.19a19.72,19.72,0,0,1-2.43-2.89" transform="translate(-25.01 -14)"/><path class="cls-17" d="M218,298.69l8.42.19c.23.23.47.45.72.68s.71.62,1.08.9l-8.43-.19q-.54-.42-1.08-.9l-.71-.68" transform="translate(-25.01 -14)"/><path class="cls-18" d="M219.82,300.27l8.43.19c.53.41,1.07.79,1.61,1.13l-8.42-.19a18.9,18.9,0,0,1-1.62-1.13" transform="translate(-25.01 -14)"/><path class="cls-19" d="M221.44,301.4l8.42.19c.52.32,1,.62,1.57.89l-8.42-.19c-.53-.27-1-.56-1.57-.89" transform="translate(-25.01 -14)"/><path class="cls-20" d="M223,302.29l8.42.19c.53.27,1.07.51,1.6.72l-8.42-.19a17.46,17.46,0,0,1-1.6-.72" transform="translate(-25.01 -14)"/><path class="cls-21" d="M224.61,303l8.42.19c.56.23,1.13.43,1.68.6l-8.42-.19q-.84-.25-1.68-.6" transform="translate(-25.01 -14)"/><path class="cls-22" d="M226.29,303.61l8.42.19c.62.19,1.24.35,1.84.48l-8.42-.19c-.61-.13-1.22-.29-1.84-.48" transform="translate(-25.01 -14)"/><path class="cls-13" d="M228.13,304.09l8.42.19.8.16c.43.07.85.14,1.26.19l-8.42-.19c-.41-.05-.84-.11-1.27-.19l-.79-.16" transform="translate(-25.01 -14)"/><path class="cls-12" d="M230.19,304.44l8.42.19c.84.11,1.64.16,2.39.19l-8.42-.19c-.76,0-1.56-.08-2.39-.19" transform="translate(-25.01 -14)"/><path class="cls-11" d="M232.58,304.63l8.42.19h.21l-8.42-.19h-.21" transform="translate(-25.01 -14)"/></g></g></g><g class="cls-7"><g class="cls-23"><g class="cls-7"><path class="cls-9" d="M238.36,304.16l8.42.19a27.3,27.3,0,0,1-16.72,5.6l-8.43-.19a27.31,27.31,0,0,0,16.73-5.6" transform="translate(-25.01 -14)"/></g></g></g><g class="cls-7"><g class="cls-24"><g class="cls-7"><path class="cls-13" d="M231,234.63l8.43.19c.37.06.72.13,1.06.21l-8.42-.19c-.34-.08-.7-.15-1.07-.21" transform="translate(-25.01 -14)"/><path class="cls-22" d="M232.11,234.84l8.42.19c.74.16,1.41.33,2,.52l-8.42-.19c-.62-.19-1.3-.36-2-.52" transform="translate(-25.01 -14)"/><path class="cls-21" d="M234.14,235.36l8.42.19c.53.17,1,.34,1.49.53l-8.43-.19c-.46-.19-1-.36-1.48-.53" transform="translate(-25.01 -14)"/><path class="cls-20" d="M235.62,235.89l8.43.19q.63.25,1.2.54l-8.43-.19q-.56-.28-1.2-.54" transform="translate(-25.01 -14)"/><path class="cls-19" d="M236.82,236.43l8.43.19a11.77,11.77,0,0,1,1.06.6l-8.42-.19c-.34-.21-.69-.41-1.07-.6" transform="translate(-25.01 -14)"/><path class="cls-18" d="M237.89,237l8.42.19a12.19,12.19,0,0,1,1.05.74l-8.42-.19c-.33-.26-.68-.5-1.05-.74" transform="translate(-25.01 -14)"/><path class="cls-17" d="M238.94,237.77l8.42.19a16.31,16.31,0,0,1,1.31,1.15l-8.43-.19a14.59,14.59,0,0,0-1.3-1.15" transform="translate(-25.01 -14)"/><path class="cls-16" d="M240.24,238.92l8.43.19.56.58a27.75,27.75,0,0,1,2.47,3.08l-8.43-.19a26.64,26.64,0,0,0-2.47-3.08c-.18-.2-.37-.39-.56-.58" transform="translate(-25.01 -14)"/><path class="cls-15" d="M243.27,242.58l8.43.19a35.07,35.07,0,0,1,4.18,8.4l-8.42-.19a34.73,34.73,0,0,0-4.19-8.4" transform="translate(-25.01 -14)"/><path class="cls-16" d="M247.46,251l8.42.19a42.48,42.48,0,0,1,1.82,7.29l-8.42-.19a42.48,42.48,0,0,0-1.82-7.29" transform="translate(-25.01 -14)"/><path class="cls-17" d="M249.28,258.27l8.42.19a43.23,43.23,0,0,1,.48,4.78l-8.43-.19a41.13,41.13,0,0,0-.47-4.78" transform="translate(-25.01 -14)"/><path class="cls-18" d="M249.75,263.05l8.43.19c.05,1.24.05,2.47,0,3.68l-8.43-.19c.06-1.21.07-2.44,0-3.68" transform="translate(-25.01 -14)"/><path class="cls-19" d="M249.74,266.73l8.43.19c-.06,1-.15,2-.28,3l-8.43-.19c.14-1,.23-2,.28-3" transform="translate(-25.01 -14)"/><path class="cls-20" d="M249.46,269.71l8.43.19c-.12.84-.26,1.66-.44,2.47l-8.43-.19c.18-.81.33-1.63.44-2.47" transform="translate(-25.01 -14)"/><path class="cls-21" d="M249,272.18l8.43.19c-.16.71-.34,1.4-.55,2.08l-8.42-.19c.21-.68.39-1.37.54-2.08" transform="translate(-25.01 -14)"/><path class="cls-22" d="M248.48,274.26l8.42.19c-.19.61-.39,1.21-.62,1.79l-8.43-.19c.23-.58.44-1.18.63-1.79" transform="translate(-25.01 -14)"/><path class="cls-13" d="M247.85,276.05l8.43.19c-.22.55-.45,1.08-.71,1.59l-8.42-.18c.25-.52.49-1,.7-1.6" transform="translate(-25.01 -14)"/><path class="cls-12" d="M247.15,277.65l8.42.18c-.25.51-.51,1-.8,1.46l-8.42-.19c.28-.47.55-1,.8-1.45" transform="translate(-25.01 -14)"/><path class="cls-11" d="M246.35,279.1l8.42.19c-.29.48-.61.94-.94,1.38l-8.42-.19c.33-.44.64-.9.94-1.38" transform="translate(-25.01 -14)"/><path class="cls-25" d="M245.41,280.48l8.42.19a11.58,11.58,0,0,1-.83,1l-.36.38-8.42-.19.35-.37c.29-.32.57-.66.84-1" transform="translate(-25.01 -14)"/><path class="cls-9" d="M244.22,281.86l8.42.19c-3.11,3.18-7.5,4.77-11.57,6.24a47.73,47.73,0,0,1-17.38,2.82l-8.42-.19a47.85,47.85,0,0,0,17.37-2.81c4.07-1.48,8.47-3.07,11.58-6.25" transform="translate(-25.01 -14)"/></g></g></g><path class="cls-26" d="M231,234.63c5.43,1,7.8,2.77,9.76,4.87,10.19,10.89,12.09,32.84,3.77,42-3.12,3.43-7.7,5.08-11.93,6.62A48.35,48.35,0,0,1,213,290.82a22.19,22.19,0,0,0,5.77,8.55,20.53,20.53,0,0,0,10.18,4.88,25.89,25.89,0,0,0,9.44-.09,27.18,27.18,0,0,1-17.75,5.56,24.56,24.56,0,0,1-2.78-.34c-12.7-2.29-19.3-14-19.86-15-19.12,2.84-35.34,4.32-47.72,5.16-9.73.66-15.82.6-20.05-.17a16,16,0,0,1-8.14-3.66c-10.12-8.51-12.48-28.6-5.13-41,4-6.73,10.73-11,58.12-17.06C207.25,233.53,222.73,233.13,231,234.63Z" transform="translate(-25.01 -14)"/></g><g class="cls-7"><g class="cls-7"><g class="cls-27"><g class="cls-7"><path class="cls-9" d="M158.17,365.38l8.42.19c-12.71,5.36-23.65,9.29-32,12.08-7.84,2.6-12.3,3.59-15.44,3.52l-8.43-.19c3.15.07,7.61-.92,15.44-3.52,8.39-2.79,19.34-6.72,32-12.08" transform="translate(-25.01 -14)"/></g></g></g><g class="cls-7"><g class="cls-28"><g class="cls-7"><path class="cls-11" d="M173.05,318.25l8.43.19h.11l-8.42-.19h-.12" transform="translate(-25.01 -14)"/><path class="cls-12" d="M173.17,318.26l8.42.19a12,12,0,0,1,1.27.09l-8.42-.19a12.24,12.24,0,0,0-1.27-.09" transform="translate(-25.01 -14)"/><path class="cls-13" d="M174.44,318.35l8.42.19.6.09-8.43-.19-.59-.09" transform="translate(-25.01 -14)"/></g></g></g><g class="cls-7"><g class="cls-29"><g class="cls-7"><path class="cls-15" d="M167.93,360.24l8.43.19.07.11-8.42-.19-.08-.11" transform="translate(-25.01 -14)"/><path class="cls-16" d="M168,360.35l8.42.19a16.45,16.45,0,0,0,1.87,2.22l-8.42-.19a15.74,15.74,0,0,1-1.87-2.22" transform="translate(-25.01 -14)"/><path class="cls-17" d="M169.88,362.57l8.42.19a14.27,14.27,0,0,0,1.34,1.18l-8.42-.19a13.11,13.11,0,0,1-1.34-1.18" transform="translate(-25.01 -14)"/><path class="cls-18" d="M171.22,363.75l8.42.19c.37.28.76.56,1.18.82l-8.43-.19a13.39,13.39,0,0,1-1.17-.82" transform="translate(-25.01 -14)"/><path class="cls-19" d="M172.39,364.57l8.43.19c.29.19.6.37.92.54l.17.08-8.43-.19-.16-.08c-.33-.17-.63-.35-.93-.54" transform="translate(-25.01 -14)"/><path class="cls-20" d="M173.48,365.19l8.43.19c.36.18.72.35,1.08.49l-8.42-.18c-.36-.15-.73-.31-1.09-.5" transform="translate(-25.01 -14)"/><path class="cls-21" d="M174.57,365.69l8.42.18c.37.15.73.28,1.09.39l-8.42-.19c-.36-.11-.73-.24-1.09-.38" transform="translate(-25.01 -14)"/><path class="cls-22" d="M175.66,366.07l8.42.19q.58.18,1.14.3l-8.42-.19q-.57-.12-1.14-.3" transform="translate(-25.01 -14)"/><path class="cls-13" d="M176.8,366.37l8.42.19.49.1.75.11-8.42-.19-.76-.11-.48-.1" transform="translate(-25.01 -14)"/><path class="cls-12" d="M178,366.58l8.42.19a13.81,13.81,0,0,0,1.41.11l-8.42-.19a13.81,13.81,0,0,1-1.41-.11" transform="translate(-25.01 -14)"/><path class="cls-11" d="M179.45,366.69l8.42.19H188l-8.43-.18h-.12" transform="translate(-25.01 -14)"/></g></g></g><g class="cls-7"><g class="cls-30"><g class="cls-7"><path class="cls-25" d="M187.63,364.9l8.42.19a19,19,0,0,1-1.29,1.45l-8.42-.19a19,19,0,0,0,1.29-1.45" transform="translate(-25.01 -14)"/><path class="cls-9" d="M186.34,366.35l8.42.19a19.12,19.12,0,0,1-10,5.55,16.66,16.66,0,0,1-3.66.31l-8.42-.19a17.12,17.12,0,0,0,3.65-.3,19.23,19.23,0,0,0,10-5.56" transform="translate(-25.01 -14)"/></g></g></g><g class="cls-7"><g class="cls-31"><g class="cls-7"><path class="cls-13" d="M175,318.44l8.43.19.35.07-8.43-.19-.35-.07" transform="translate(-25.01 -14)"/><path class="cls-22" d="M175.38,318.51l8.43.19c.27.06.53.13.77.2l-8.42-.19-.78-.2" transform="translate(-25.01 -14)"/><path class="cls-21" d="M176.16,318.71l8.42.19a7.43,7.43,0,0,1,.71.26l-8.42-.19c-.23-.09-.46-.18-.71-.26" transform="translate(-25.01 -14)"/><path class="cls-20" d="M176.87,319l8.42.19c.25.1.5.21.73.33l-8.43-.19a7.89,7.89,0,0,0-.72-.33" transform="translate(-25.01 -14)"/><path class="cls-19" d="M177.59,319.3l8.43.19a9,9,0,0,1,.91.52l-8.42-.19a10.36,10.36,0,0,0-.92-.52" transform="translate(-25.01 -14)"/><path class="cls-18" d="M178.51,319.82l8.42.19.17.1c.43.28.86.59,1.28.91l-8.43-.19c-.41-.32-.84-.62-1.28-.91l-.16-.1" transform="translate(-25.01 -14)"/><path class="cls-17" d="M180,320.83l8.43.19a23.18,23.18,0,0,1,1.84,1.62l-8.43-.19a20.11,20.11,0,0,0-1.84-1.62" transform="translate(-25.01 -14)"/><path class="cls-16" d="M181.79,322.45l8.43.19A24.51,24.51,0,0,1,193,326l-8.42-.19a24.57,24.57,0,0,0-2.83-3.39" transform="translate(-25.01 -14)"/><path class="cls-15" d="M184.62,325.84,193,326a29.29,29.29,0,0,1,3.61,7.15l-8.42-.19a29.65,29.65,0,0,0-3.61-7.15" transform="translate(-25.01 -14)"/><path class="cls-16" d="M188.23,333l8.42.19a27.58,27.58,0,0,1,1.21,4.77l-8.42-.19a27.81,27.81,0,0,0-1.21-4.77" transform="translate(-25.01 -14)"/><path class="cls-17" d="M189.44,337.76l8.42.19a24.18,24.18,0,0,1,.27,2.63l-8.42-.19a24.18,24.18,0,0,0-.27-2.63" transform="translate(-25.01 -14)"/><path class="cls-18" d="M189.71,340.39l8.42.19a17.16,17.16,0,0,1,0,1.9l-8.42-.19c0-.62,0-1.25,0-1.9" transform="translate(-25.01 -14)"/><path class="cls-19" d="M189.7,342.29l8.42.19c0,.5-.07,1-.13,1.48l-8.43-.19a14.27,14.27,0,0,0,.14-1.48" transform="translate(-25.01 -14)"/><path class="cls-20" d="M189.56,343.77,198,344c-.06.41-.13.82-.22,1.22l-8.42-.19c.09-.4.16-.81.21-1.22" transform="translate(-25.01 -14)"/><path class="cls-21" d="M189.35,345l8.42.19q-.12.52-.27,1.05l-8.43-.19c.11-.34.2-.7.28-1.05" transform="translate(-25.01 -14)"/><path class="cls-22" d="M189.07,346l8.43.19q-.15.48-.33.93l-8.42-.19a9.25,9.25,0,0,0,.32-.93" transform="translate(-25.01 -14)"/><path class="cls-13" d="M188.75,347l8.42.19c-.11.28-.23.56-.36.83l-8.43-.19c.13-.27.26-.54.37-.83" transform="translate(-25.01 -14)"/><path class="cls-12" d="M188.38,347.8l8.43.19-.2.38c-.08.15-.16.29-.25.43l-8.42-.19.24-.43c.07-.12.14-.25.2-.38" transform="translate(-25.01 -14)"/><path class="cls-11" d="M187.94,348.61l8.42.19c-.2.33-.42.65-.65,1l-8.43-.19c.24-.31.45-.63.66-1" transform="translate(-25.01 -14)"/><path class="cls-25" d="M187.28,349.57l8.43.19a14,14,0,0,1-1.13,1.3l-8.43-.19a12.68,12.68,0,0,0,1.13-1.3" transform="translate(-25.01 -14)"/><path class="cls-9" d="M186.15,350.87l8.43.19a32.42,32.42,0,0,1-5.11,4,34.27,34.27,0,0,1-13.11,5.38l-8.43-.19a34.36,34.36,0,0,0,13.12-5.38,31.9,31.9,0,0,0,5.1-4" transform="translate(-25.01 -14)"/></g></g></g><path class="cls-26" d="M175,318.44a9.55,9.55,0,0,1,3.64,1.48c8.82,5.69,13.75,20.47,9.51,28.26-1.59,2.91-4.47,4.88-7.13,6.68a34.36,34.36,0,0,1-13.12,5.38,15.23,15.23,0,0,0,5.39,4.87,13.91,13.91,0,0,0,4,1.36,17.56,17.56,0,0,0,10.35-1.57,19.65,19.65,0,0,1-11.32,7,17.44,17.44,0,0,1-6.36,0,22.68,22.68,0,0,1-11.78-6.56c-12.71,5.36-23.66,9.29-32,12.08-9.46,3.15-14,3.93-17.25,3.34a10.68,10.68,0,0,1-2.81-.94c-8.39-4.05-13.32-17.46-10.29-27.32,1.65-5.34,5.59-9.49,37.26-22.14C160.25,319.54,170,317.54,175,318.44Z" transform="translate(-25.01 -14)"/></g></g><g id="fella1"><path class="cls-32" d="M117.21,152.68c13.32-35.41,32.4-58.52,48.08-56.57a21.18,21.18,0,0,1,14.39,9.31c6.29,9.94.8,23.2-4.23,35.31a122.67,122.67,0,0,1-25.16,38.07,53.3,53.3,0,0,0-33.08-26.12Z" transform="translate(-25.01 -14)"/><path class="cls-33" d="M167.32,210.7c-4.68,13.74-28.19,17.39-59.2,22.2-31.19,4.84-60.53,9.39-69.06-3.7-12.28-18.86,15.8-78.74,59.2-82C137.9,144.25,174.46,189.7,167.32,210.7Z" transform="translate(-25.01 -14)"/><circle class="cls-34" cx="60.94" cy="86.96" r="60.43"/><path class="cls-32" d="M58.05,154.59c-10.68.33-25.71,25.74-16.89,40.35s36,8.66,38.65,8.07c19.64-4.38,37.74-20.39,35.15-28.87-.85-2.79-4.19-5.54-13.27-7.1-8.14,1.62-19.2,2.32-29.25-3.15C64.44,159.53,62.9,154.43,58.05,154.59Z" transform="translate(-25.01 -14)"/><path class="cls-35" d="M59.41,105.64l24,3a38.54,38.54,0,0,1-16.53,10.52,36.42,36.42,0,0,1-7.52,1.5" transform="translate(-25.01 -14)"/><path class="cls-35" d="M136,88.83l-16,11.82a31.74,31.74,0,0,0,16.06.87,30.67,30.67,0,0,0,6-1.94" transform="translate(-25.01 -14)"/><path class="cls-5" d="M67.72,56.17c-.2-2.56-.5-10.87,5.12-17.92,6.66-8.37,18.94-11.52,30.72-7.68a59.56,59.56,0,0,1-7.68,7.68c-6.2,5.13-10.54,6.53-20.48,12.8C72,53.23,69.25,55.09,67.72,56.17Z" transform="translate(-25.01 -14)"/><path class="cls-5" d="M68.51,55.14c-1.57-2-6.42-8.79-5.63-17.77C63.82,26.72,72.31,17.3,84.25,14a58,58,0,0,1-2.16,10.64c-2.33,7.7-5.18,11.27-10,22C70.41,50.35,69.2,53.38,68.51,55.14Z" transform="translate(-25.01 -14)"/></g><g id="headphone"><path class="cls-36" d="M127.85,118.21a22.94,22.94,0,0,0-6.76,14.49c-.77,10.93,7,18,8,18.8l11.73,2.16a27.19,27.19,0,0,1-8.64-16c-1.73-12,5.66-20.64,6.77-21.89Z" transform="translate(-25.01 -14)"/><path class="cls-37" d="M140.82,153.66l93.09,13.88c-2.49-1.16-20.67-10-25.9-30.83-4.11-16.42,1.39-34.05,14.2-45.94l-83.26,25a27.2,27.2,0,0,0,1.87,37.92Z" transform="translate(-25.01 -14)"/><path class="cls-38" d="M224.68,90.77c7.74-2.08,16.18,2.65,21,7.4,19.09,19,7.6,65.68-8,69.37-10.16,2.4-23.66-13-28.36-27.13C202.68,120.7,210.3,94.62,224.68,90.77Z" transform="translate(-25.01 -14)"/><g class="cls-7"><g class="cls-7"><g class="cls-39"><g class="cls-7"><path class="cls-40" d="M280.41,134.93l-13.65-.33c.25-.67.65-1.8,1.08-3.3l13.65.33c-.42,1.5-.82,2.64-1.08,3.3" transform="translate(-25.01 -14)"/><path class="cls-41" d="M281.49,131.63l-13.65-.33a48.06,48.06,0,0,0,1.39-7l13.66.33a46.62,46.62,0,0,1-1.4,7" transform="translate(-25.01 -14)"/><path class="cls-42" d="M282.89,124.67l-13.66-.33a42.19,42.19,0,0,0,.31-6.09l13.66.33a45.26,45.26,0,0,1-.31,6.09" transform="translate(-25.01 -14)"/><path class="cls-43" d="M283.2,118.58l-13.66-.33a38.74,38.74,0,0,0-.6-6.11l13.66.33a38.74,38.74,0,0,1,.6,6.11" transform="translate(-25.01 -14)"/><path class="cls-44" d="M282.6,112.47l-13.66-.33a35.53,35.53,0,0,0-1-4,28.45,28.45,0,0,0-8.85-13.87l13.66.33a28.5,28.5,0,0,1,8.85,13.87,36.05,36.05,0,0,1,1,4" transform="translate(-25.01 -14)"/></g></g></g><polygon class="cls-45" points="255.4 120.93 241.74 120.6 234.35 119.87 248.01 120.2 255.4 120.93"/><polygon class="cls-46" points="246.95 121.09 233.29 120.76 233.49 120.13 247.14 120.46 246.95 121.09"/><polygon class="cls-45" points="255.81 121.98 242.16 121.65 233.29 120.76 246.95 121.09 255.81 121.98"/><polygon class="cls-47" points="243.81 86.32 230.15 85.99 234.11 80.25 247.77 80.58 243.81 86.32"/><g class="cls-7"><g class="cls-48"><g class="cls-7"><path class="cls-40" d="M273,134.2l-13.66-.33c0-.08.05-.16.07-.24l13.66.33a2.17,2.17,0,0,0-.07.24" transform="translate(-25.01 -14)"/><path class="cls-41" d="M273.09,134l-13.66-.33a49.4,49.4,0,0,0,1.45-7.32l13.66.33a49.13,49.13,0,0,1-1.45,7.32" transform="translate(-25.01 -14)"/><path class="cls-42" d="M274.54,126.64l-13.66-.33a46.44,46.44,0,0,0,.34-6.54l13.66.33a48,48,0,0,1-.34,6.54" transform="translate(-25.01 -14)"/><path class="cls-43" d="M274.88,120.1l-13.66-.33a40.78,40.78,0,0,0-.63-6.45l13.65.33a39.79,39.79,0,0,1,.64,6.45" transform="translate(-25.01 -14)"/><path class="cls-44" d="M274.24,113.65l-13.65-.33a37.1,37.1,0,0,0-.92-3.89,32.55,32.55,0,0,0-4.5-9.44l13.65.33a32.28,32.28,0,0,1,4.5,9.44,35.82,35.82,0,0,1,.92,3.89" transform="translate(-25.01 -14)"/></g></g></g><path class="cls-49" d="M282.31,108.06c4,13-.44,25.31-1.37,27.63l-.12.29-8.86-.89.19-.63c1.18-3.84,3.58-13.89.5-24.3a31.11,31.11,0,0,0-4.6-9.47l-.25-.34,4.85-7,.26.2A29.43,29.43,0,0,1,282.31,108.06Zm-1.9,26.87c1.09-2.84,4.92-14.31,1.22-26.48a28.5,28.5,0,0,0-8.85-13.87l-4,5.74a32.28,32.28,0,0,1,4.5,9.44c3,10.23.95,20.09-.3,24.44l7.39.73" transform="translate(-25.01 -14)"/><path class="cls-49" d="M272.78,94.58a28.5,28.5,0,0,1,8.85,13.87c3.7,12.17-.13,23.64-1.22,26.48L273,134.2c1.25-4.35,3.33-14.21.3-24.44a32.28,32.28,0,0,0-4.5-9.44Z" transform="translate(-25.01 -14)"/><g class="cls-7"><g class="cls-50"><g class="cls-7"><path class="cls-40" d="M272.15,134.46l-13.65-.33c.08-.26.16-.55.25-.87l13.66.34c-.09.31-.18.6-.26.86" transform="translate(-25.01 -14)"/><path class="cls-41" d="M272.41,133.6l-13.66-.34a46.08,46.08,0,0,0,1.41-7.11l13.66.34a49.18,49.18,0,0,1-1.41,7.11" transform="translate(-25.01 -14)"/><path class="cls-42" d="M273.82,126.49l-13.66-.34a43.57,43.57,0,0,0,.33-6.33l13.66.33a43.72,43.72,0,0,1-.33,6.34" transform="translate(-25.01 -14)"/><path class="cls-43" d="M274.15,120.15l-13.66-.33a39.18,39.18,0,0,0-.61-6.23l13.66.34a39.06,39.06,0,0,1,.61,6.22" transform="translate(-25.01 -14)"/><path class="cls-44" d="M273.54,113.93l-13.66-.34a36,36,0,0,0-.89-3.77,31.27,31.27,0,0,0-4.59-9.46l13.65.33a31.11,31.11,0,0,1,4.6,9.47,37.36,37.36,0,0,1,.89,3.77" transform="translate(-25.01 -14)"/></g></g></g><polygon class="cls-47" points="242.79 86.35 229.13 86.01 233.99 78.97 247.64 79.31 242.79 86.35"/><polygon class="cls-51" points="243.04 86.69 229.38 86.36 229.13 86.01 242.79 86.35 243.04 86.69"/></g><g class="cls-7"><g class="cls-7"><g class="cls-52"><g class="cls-7"><path class="cls-42" d="M308.13,137.25l-13.66-.33a84.61,84.61,0,0,0,.61-11.71l13.66.33a84.44,84.44,0,0,1-.61,11.71" transform="translate(-25.01 -14)"/></g></g></g><g class="cls-7"><g class="cls-53"><g class="cls-7"><path class="cls-42" d="M308.13,137.25l-13.66-.33a84.61,84.61,0,0,0,.61-11.71l13.66.33a84.44,84.44,0,0,1-.61,11.71" transform="translate(-25.01 -14)"/><path class="cls-43" d="M308.74,125.54l-13.66-.33A74.81,74.81,0,0,0,294,113.67l13.65.33a73.64,73.64,0,0,1,1.14,11.54" transform="translate(-25.01 -14)"/><path class="cls-44" d="M307.6,114,294,113.67a67.31,67.31,0,0,0-1.66-7A57.8,57.8,0,0,0,284,89.5l13.65.33A57.69,57.69,0,0,1,306,107a65.34,65.34,0,0,1,1.65,7" transform="translate(-25.01 -14)"/></g></g></g><g class="cls-7"><g class="cls-54"><g class="cls-7"><path class="cls-40" d="M319.18,152.69l-13.66-.34a64.78,64.78,0,0,0,2.06-6.24l13.66.34c-.82,2.92-1.61,5.07-2.06,6.24" transform="translate(-25.01 -14)"/><path class="cls-41" d="M321.24,146.45l-13.66-.34a86.17,86.17,0,0,0,2.53-12.65l13.66.33a86.06,86.06,0,0,1-2.53,12.66" transform="translate(-25.01 -14)"/><path class="cls-42" d="M323.77,133.79l-13.66-.33a79.45,79.45,0,0,0,.57-11.07l13.66.33a79.45,79.45,0,0,1-.57,11.07" transform="translate(-25.01 -14)"/><path class="cls-43" d="M324.34,122.72l-13.66-.33a70.17,70.17,0,0,0-1.09-11.1l13.66.33a70.17,70.17,0,0,1,1.09,11.1" transform="translate(-25.01 -14)"/><path class="cls-44" d="M323.25,111.62l-13.66-.33a63.33,63.33,0,0,0-1.76-7.3c-4.24-13.93-11.93-21.83-16.3-25.39l13.66.33c4.37,3.56,12.06,11.46,16.3,25.39a67.75,67.75,0,0,1,1.76,7.3" transform="translate(-25.01 -14)"/></g></g></g><polygon class="cls-45" points="294.17 138.69 280.51 138.35 266.58 136.97 280.24 137.3 294.17 138.69"/><g class="cls-7"><g class="cls-55"><g class="cls-7"><path class="cls-40" d="M305.25,151.3,291.59,151c.1-.32.19-.66.3-1l13.65.33-.29,1" transform="translate(-25.01 -14)"/><path class="cls-41" d="M305.54,150.28,291.89,150a87.78,87.78,0,0,0,2.58-13l13.66.33a86.06,86.06,0,0,1-2.59,13" transform="translate(-25.01 -14)"/><path class="cls-42" d="M308.13,137.25l-13.66-.33a84.61,84.61,0,0,0,.61-11.71l13.66.33a84.44,84.44,0,0,1-.61,11.71" transform="translate(-25.01 -14)"/></g></g></g><polygon class="cls-45" points="294.58 139.74 280.92 139.4 265.52 137.87 279.18 138.2 294.58 139.74"/><polygon class="cls-56" points="279.18 138.2 265.52 137.87 265.72 137.23 279.37 137.56 279.18 138.2"/><g class="cls-7"><g class="cls-57"><g class="cls-7"><path class="cls-44" d="M307.6,114,294,113.67a67.31,67.31,0,0,0-1.66-7A57.8,57.8,0,0,0,284,89.5l13.65.33A57.69,57.69,0,0,1,306,107a65.34,65.34,0,0,1,1.65,7" transform="translate(-25.01 -14)"/></g></g></g><g class="cls-7"><g class="cls-58"><g class="cls-7"><path class="cls-44" d="M307.6,114,294,113.67a67.31,67.31,0,0,0-1.66-7A57.8,57.8,0,0,0,284,89.5l13.65.33A57.69,57.69,0,0,1,306,107a65.34,65.34,0,0,1,1.65,7" transform="translate(-25.01 -14)"/></g></g></g><polygon class="cls-47" points="272.68 75.83 259.02 75.5 266.52 64.6 280.18 64.93 272.68 75.83"/><path class="cls-49" d="M305.19,78.93c4.37,3.56,12.06,11.46,16.3,25.39,6.83,22.48-.47,43.63-2.31,48.37l-13.93-1.39c2.22-7.51,6.25-25.55.7-44.29a57.69,57.69,0,0,0-8.26-17.18Z" transform="translate(-25.01 -14)"/><g class="cls-7"><g class="cls-59"><g class="cls-7"><path class="cls-40" d="M304.39,151.56l-13.66-.33c.15-.48.3-1,.47-1.6l13.66.33-.47,1.6" transform="translate(-25.01 -14)"/><path class="cls-41" d="M304.86,150l-13.66-.33a86.46,86.46,0,0,0,2.55-12.86l13.66.33A87.5,87.5,0,0,1,304.86,150" transform="translate(-25.01 -14)"/><path class="cls-42" d="M307.41,137.1l-13.66-.33a81.82,81.82,0,0,0,.6-11.51l13.66.33a81.82,81.82,0,0,1-.6,11.51" transform="translate(-25.01 -14)"/><path class="cls-43" d="M308,125.59l-13.66-.33a72.12,72.12,0,0,0-1.11-11.34l13.66.33A73.33,73.33,0,0,1,308,125.59" transform="translate(-25.01 -14)"/><path class="cls-44" d="M306.9,114.25l-13.66-.33a66,66,0,0,0-1.63-6.86,56.79,56.79,0,0,0-8.34-17.2l13.65.33a56.87,56.87,0,0,1,8.35,17.21,65.26,65.26,0,0,1,1.63,6.85" transform="translate(-25.01 -14)"/></g></g></g><polygon class="cls-47" points="271.67 75.86 258.01 75.52 266.39 63.34 280.05 63.67 271.67 75.86"/><polygon class="cls-60" points="271.91 76.19 258.25 75.86 258.01 75.52 271.67 75.86 271.91 76.19"/><path class="cls-49" d="M322.16,103.93c7.11,23.39-.8,45.35-2.45,49.51l-.12.29-15.4-1.53.2-.64c2.13-7,6.49-25.22.88-44.16a56.87,56.87,0,0,0-8.35-17.21l-.24-.33,8.38-12.19.26.2C309.72,81.4,317.76,89.46,322.16,103.93Zm-3,48.76c1.84-4.74,9.14-25.89,2.31-48.37-4.24-13.93-11.93-21.83-16.3-25.39l-7.5,10.9A57.69,57.69,0,0,1,306,107c5.55,18.74,1.52,36.78-.7,44.29l13.93,1.39" transform="translate(-25.01 -14)"/></g><g class="cls-7"><g class="cls-7"><g class="cls-61"><g class="cls-7"><path class="cls-40" d="M367.6,158.94,354,158.61c.55-1.42,1.54-4.12,2.57-7.81l13.66.34a81.7,81.7,0,0,1-2.58,7.8" transform="translate(-25.01 -14)"/><path class="cls-41" d="M370.18,151.14l-13.66-.34a104.88,104.88,0,0,0,3.13-15.65l13.66.33a105,105,0,0,1-3.13,15.66" transform="translate(-25.01 -14)"/><path class="cls-42" d="M373.31,135.48l-13.66-.33a97.82,97.82,0,0,0,.71-13.71l13.66.33a97.82,97.82,0,0,1-.71,13.71" transform="translate(-25.01 -14)"/><path class="cls-43" d="M374,121.77l-13.66-.33A87.6,87.6,0,0,0,359,107.71l13.66.33A87.6,87.6,0,0,1,374,121.77" transform="translate(-25.01 -14)"/><path class="cls-44" d="M372.67,108,359,107.71a79.68,79.68,0,0,0-2.18-9C351.56,81.35,342,71.57,336.59,67.18l13.66.33c5.41,4.39,15,14.18,20.24,31.49a81.17,81.17,0,0,1,2.18,9" transform="translate(-25.01 -14)"/></g></g></g><polygon class="cls-45" points="342.59 144.94 328.93 144.61 311.55 142.89 325.21 143.22 342.59 144.94"/><polygon class="cls-46" points="324.14 144.11 310.49 143.78 310.68 143.15 324.34 143.48 324.14 144.11"/><polygon class="cls-45" points="343 145.99 329.35 145.65 310.49 143.78 324.14 144.11 343 145.99"/><polygon class="cls-47" points="315.87 67.13 302.21 66.79 311.58 53.18 325.23 53.51 315.87 67.13"/><g class="cls-7"><g class="cls-62"><g class="cls-7"><path class="cls-40" d="M350.22,157.22l-13.66-.33c.13-.43.26-.87.39-1.35l13.66.33-.39,1.35" transform="translate(-25.01 -14)"/><path class="cls-41" d="M350.61,155.87,337,155.54a109.73,109.73,0,0,0,3.21-16.14l13.65.33a108.34,108.34,0,0,1-3.2,16.14" transform="translate(-25.01 -14)"/><path class="cls-42" d="M353.81,139.73l-13.65-.33a103,103,0,0,0,.74-14.47l13.66.33a101.39,101.39,0,0,1-.75,14.47" transform="translate(-25.01 -14)"/><path class="cls-43" d="M354.56,125.26l-13.66-.33a90.69,90.69,0,0,0-1.39-14.24l13.65.33a89.67,89.67,0,0,1,1.4,14.24" transform="translate(-25.01 -14)"/><path class="cls-44" d="M353.16,111l-13.65-.33a84.53,84.53,0,0,0-2-8.62,71.51,71.51,0,0,0-10.25-21.28l13.66.34a71.14,71.14,0,0,1,10.24,21.28,79.37,79.37,0,0,1,2,8.61" transform="translate(-25.01 -14)"/></g></g></g><path class="cls-49" d="M350.25,67.51c5.41,4.39,15,14.18,20.24,31.49,8.49,27.93-.65,54.22-2.89,59.94l-17.38-1.72c2.73-9.18,7.78-31.58.9-54.81a71.14,71.14,0,0,0-10.24-21.28Z" transform="translate(-25.01 -14)"/><g class="cls-7"><g class="cls-63"><g class="cls-7"><path class="cls-40" d="M349.35,157.48l-13.66-.33c.18-.6.38-1.27.59-2l13.65.33c-.2.73-.4,1.4-.58,2" transform="translate(-25.01 -14)"/><path class="cls-41" d="M349.93,155.48l-13.65-.33a106.71,106.71,0,0,0,3.16-15.91l13.65.33a106.71,106.71,0,0,1-3.16,15.91" transform="translate(-25.01 -14)"/><path class="cls-42" d="M353.09,139.57l-13.65-.33a101.63,101.63,0,0,0,.73-14.26l13.66.34a101.49,101.49,0,0,1-.74,14.25" transform="translate(-25.01 -14)"/><path class="cls-43" d="M353.83,125.32,340.17,125a89.34,89.34,0,0,0-1.37-14l13.66.33a89.35,89.35,0,0,1,1.37,14" transform="translate(-25.01 -14)"/><path class="cls-44" d="M352.46,111.27l-13.66-.33a81.83,81.83,0,0,0-2-8.48,70,70,0,0,0-10.34-21.29l13.66.33a70.34,70.34,0,0,1,10.34,21.29,81.83,81.83,0,0,1,2,8.48" transform="translate(-25.01 -14)"/></g></g></g><polygon class="cls-47" points="314.85 67.16 301.19 66.83 311.46 51.91 325.12 52.24 314.85 67.16"/><polygon class="cls-51" points="315.1 67.5 301.44 67.17 301.19 66.83 314.85 67.16 315.1 67.5"/><path class="cls-49" d="M371.16,98.6c8.78,28.85-1,56-3,61.1L368,160l-18.86-1.87.19-.63c2.64-8.63,8-31.24,1.1-54.69A70.34,70.34,0,0,0,340.11,81.5l-.25-.34,10.27-14.92.24.21C355.81,70.8,365.73,80.75,371.16,98.6Zm-3.56,60.34c2.24-5.72,11.38-32,2.89-59.94-5.27-17.31-14.83-27.1-20.24-31.49l-9.37,13.62a71.14,71.14,0,0,1,10.24,21.28c6.88,23.23,1.83,45.63-.9,54.81l17.38,1.72" transform="translate(-25.01 -14)"/></g></g></svg>