<svg xmlns="http://www.w3.org/2000/svg" viewBox="0 0 352 415.47"><defs><style>.cls-1{fill:#8c69c1;}.cls-2{fill:#7854ad;}.cls-3{fill:#673e9b;}.cls-4{fill:#672e9b;}.cls-5{fill:#55198c;}.cls-6{fill:#93dfff;}.cls-7{fill:#7fd2ff;}.cls-8{fill:#7fc1ff;}.cls-9{fill:#83aeff;}.cls-10{fill:#225e73;}.cls-11{fill:#229273;}.cls-12{fill:#227c73;}.cls-13{fill:#229773;}.cls-14{fill:#22a473;}.cls-15{fill:#227773;}.cls-16{fill:#226873;}.cls-17{isolation:isolate;}.cls-18{fill:#7e4d67;}.cls-19{fill:#814f6a;}.cls-20{fill:#7c4c66;}.cls-21{fill:#f395c7;}.cls-22{fill:#7d4d66;}.cls-23{fill:#7d4c66;}.cls-24{fill:#a5c5d3;}.cls-25{fill:#7da3b3;}.cls-26{fill:#8cb1c1;}.cls-27{fill:#27556a;}.cls-28{fill:#7fffdd;}.cls-29{fill:#bda1b4;}.cls-30{fill:#dac4d3;}.cls-31{fill:#c9b1c1;}.cls-32{fill:#6f556a;}.cls-33{fill:#90906b;}.cls-34{fill:#838b72;}.cls-35{fill:#868c70;}.cls-36{fill:#91916b;}.cls-37{fill:#818a72;}.cls-38{fill:#ccaa4f;}.cls-39{fill:#8f906c;}.cls-40{fill:#8b8e6e;}.cls-41{fill:#8d8f6d;}.cls-42{fill:#8a8e6e;}.cls-43{fill:#90916b;}.cls-44{fill:#ab9c5e;}.cls-45{fill:#999467;}.cls-46{fill:#a69a61;}.cls-47{fill:#b7a159;}.cls-48{fill:#b5a05a;}.cls-49{fill:#b6a159;}.cls-50{fill:#ae9d5d;}.cls-51{fill:#9d9665;}.cls-52{fill:#b8a158;}.cls-53{fill:#8c8f6d;}.cls-54{fill:#b9a258;}</style></defs><g id="room"><path class="cls-1" d="M38,117l9,7L214,38V28Z" transform="translate(-38 -27.53)"/><path class="cls-2" d="M38.49,117V338.55l9,4.95V124Z" transform="translate(-38 -27.53)"/><path class="cls-1" d="M390,116.58l-9,7-167-86v-10Z" transform="translate(-38 -27.53)"/><path class="cls-2" d="M389.66,116.69V338.23l-9,5V123.7Z" transform="translate(-38 -27.53)"/><path class="cls-3" d="M47,337,213,237q.51-99.49,1-199L47,124Z" transform="translate(-38 -27.53)"/><path class="cls-4" d="M381,336.79,213,237.07q.51-99.54,1-199.07l167,85.94Z" transform="translate(-38 -27.53)"/><path class="cls-5" d="M47,336l182,97,152-97L213,236Z" transform="translate(-38 -27.53)"/><path class="cls-1" d="M47,336v7L229,443V433Z" transform="translate(-38 -27.53)"/><path class="cls-1" d="M381,336v7L229,442.72v-10Z" transform="translate(-38 -27.53)"/></g><g id="sea"><path class="cls-6" d="M172,388c39.49-42.82,56.43-52.06,63-48,3.16,2,4.31,7.23,9,8,6.69,1.09,13-8.21,17-13,15.49-18.6,38.57-22.34,46-24a85.09,85.09,0,0,1,31-1Z" transform="translate(-38 -27.53)"/><path class="cls-7" d="M218,416c5.93-1.43,39.23-10.08,56-42a80.29,80.29,0,0,0,9-38L172,388Z" transform="translate(-38 -27.53)"/><path class="cls-8" d="M274,374c14.85-15,37.89-33.47,70-44a164.6,164.6,0,0,1,19-5l-25-15a167.07,167.07,0,0,0-29,10c-15.8,7.13-25,11.29-31,21C270.9,352.55,272.2,365.86,274,374Z" transform="translate(-38 -27.53)"/><path class="cls-8" d="M228,430a59.82,59.82,0,0,0-5-10c-14.3-22.93-40.45-29.85-51-32v8Z" transform="translate(-38 -27.53)"/><path class="cls-8" d="M237,380q-3.5,12-7,24" transform="translate(-38 -27.53)"/><path class="cls-9" d="M253,392c-8.16,2.67-13.8.63-25,4a60.18,60.18,0,0,0-18,9,55.39,55.39,0,0,1,18,25l145-94a14.08,14.08,0,0,0-4-10,13.08,13.08,0,0,0-5-3,152,152,0,0,0-89,49C267.41,385,259.27,389.94,253,392Z" transform="translate(-38 -27.53)"/></g><g id="grass"><path class="cls-10" d="M127,375l140-85V272L128,359Q127.51,367,127,375Z" transform="translate(-38 -27.53)"/><path class="cls-11" d="M49,298l66-33,101-31-32,38L70,328Z" transform="translate(-38 -27.53)"/><path class="cls-12" d="M146,288,69,327l50,12,39-34Z" transform="translate(-38 -27.53)"/><path class="cls-12" d="M127,356" transform="translate(-38 -27.53)"/><path class="cls-12" d="M128,359l57-29-66,9Z" transform="translate(-38 -27.53)"/><path class="cls-13" d="M158,305l73-4-43-36-42,23Z" transform="translate(-38 -27.53)"/><path class="cls-14" d="M185,330l-27-25-39,34Z" transform="translate(-38 -27.53)"/><path class="cls-12" d="M185,330l45-29-72,4Z" transform="translate(-38 -27.53)"/><path class="cls-15" d="M216,234l19,13-45,18Z" transform="translate(-38 -27.53)"/><path class="cls-16" d="M230,301l36-36-31-18-47,18Z" transform="translate(-38 -27.53)"/><path class="cls-16" d="M49,298q.49,18,1,36l77,41q.5-8,1-16l-9-20L69,327Z" transform="translate(-38 -27.53)"/></g><g id="flowers_" data-name="flowers?"><g class="cls-17"><polygon class="cls-18" points="65.44 281.6 61.86 285.62 52.97 289.95 56.55 285.93 65.44 281.6"/><polygon class="cls-19" points="56.55 285.93 52.97 289.95 43.32 283.81 46.91 279.79 56.55 285.93"/><polygon class="cls-20" points="46.91 279.79 43.32 283.81 42.56 273.34 46.15 269.32 46.91 279.79"/><polygon class="cls-21" points="55.05 264.98 64.69 271.12 65.44 281.6 56.55 285.93 46.91 279.79 46.15 269.32 55.05 264.98"/></g><g class="cls-17"><polygon class="cls-22" points="125.59 292.25 122.01 296.27 117.1 299 120.68 294.98 125.59 292.25"/><polygon class="cls-19" points="120.68 294.98 117.1 299 111.48 295.74 115.06 291.71 120.68 294.98"/><polygon class="cls-23" points="115.06 291.71 111.48 295.74 110.75 289.75 114.34 285.72 115.06 291.71"/><polygon class="cls-21" points="119.24 282.99 124.86 286.25 125.59 292.25 120.68 294.98 115.06 291.71 114.34 285.72 119.24 282.99"/></g><g class="cls-17"><polygon class="cls-22" points="187.52 220.25 183.94 224.27 179.03 227 182.62 222.97 187.52 220.25"/><polygon class="cls-19" points="182.62 222.97 179.03 227 173.41 223.74 176.99 219.71 182.62 222.97"/><polygon class="cls-23" points="176.99 219.71 173.41 223.74 172.68 217.74 176.27 213.72 176.99 219.71"/><polygon class="cls-21" points="181.18 210.98 186.8 214.25 187.52 220.25 182.62 222.97 176.99 219.71 176.27 213.72 181.18 210.98"/></g></g><g id="blu_person" data-name="blu person"><path class="cls-24" d="M141,289c2.89,5.13,5.77,6.51,7,7a13.27,13.27,0,0,0,9,0l5-5,13-4a5.46,5.46,0,0,0,1,4,5.72,5.72,0,0,0,4,2,8.79,8.79,0,0,0,5-1c2.84-1.59,4.15-5.26,5-12,1.38-10.92,2.16-17.12-1-25a37.1,37.1,0,0,0-10-14,41.28,41.28,0,0,1-29,3,37,37,0,0,0-11,15A35.88,35.88,0,0,0,141,289Z" transform="translate(-38 -27.53)"/><path class="cls-25" d="M200.32,243.15c6.79-4.41,10.3-6.67,12-11.1.67-1.7,2.78-7.06,0-12.19-2.09-3.92-6.77-7.28-11-6.47-2.39.45-3.81,2.12-6.55,5.45-4.79,5.8-4.86,9.06-9.21,13.83a29.81,29.81,0,0,1-5.28,4.58c.06,1.11.65,9.7,5.67,11.75C189.27,250.34,193,247.94,200.32,243.15Z" transform="translate(-38 -27.53)"/><circle class="cls-26" cx="124.5" cy="194.97" r="27.5"/><path class="cls-25" d="M139,247c-2.14,1.43-7.67,5.15-9,12-.32,1.65-1.32,6.83,2,11,2.53,3.18,7.31,5.44,11,4,2.08-.81,3.08-2.55,5-6,3.35-6,2.88-9,6-14a27.54,27.54,0,0,1,4-5c-.87-.9-5.63-5.67-12-5A14.71,14.71,0,0,0,139,247Z" transform="translate(-38 -27.53)"/><ellipse class="cls-27" cx="123" cy="202.97" rx="1" ry="3.5"/><ellipse class="cls-27" cx="178" cy="228.5" rx="1" ry="3.5" transform="translate(-86.74 20.73) rotate(-13.6)"/><path class="cls-28" d="M162,199a10.15,10.15,0,0,1,2-7c2.6-3.27,7.4-4.5,12-3a23,23,0,0,1-3,3c-2.42,2-4.12,2.55-8,5C163.65,197.85,162.6,198.58,162,199Z" transform="translate(-38 -27.53)"/><path class="cls-28" d="M162.31,198.6a10.19,10.19,0,0,1-2.2-6.94c.37-4.16,3.69-7.84,8.35-9.13a23.53,23.53,0,0,1-.84,4.16c-.92,3-2,4.4-3.91,8.58C163.05,196.73,162.58,197.91,162.31,198.6Z" transform="translate(-38 -27.53)"/></g><g id="redperson"><path class="cls-29" d="M299.59,282.77c6.2-5.2,9.41-7.88,10.6-12.48.45-1.77,1.89-7.34-1.46-12.11-2.55-3.64-7.6-6.4-11.71-5.08-2.32.74-3.53,2.57-5.84,6.2-4.05,6.35-3.73,9.59-7.46,14.85a29.55,29.55,0,0,1-4.69,5.18c.2,1.1,1.82,9.56,7.05,11C289.49,291.24,292.86,288.42,299.59,282.77Z" transform="translate(-38 -27.53)"/><path class="cls-30" d="M241.27,325.29c2.89,5.13,5.77,6.52,7,7a13.27,13.27,0,0,0,9,0l5-5,13-4a5.46,5.46,0,0,0,1,4,5.72,5.72,0,0,0,4,2,8.79,8.79,0,0,0,5-1c2.84-1.59,4.15-5.26,5-12,1.38-10.92,2.16-17.12-1-25a37.21,37.21,0,0,0-10-14,41.28,41.28,0,0,1-29,3,37,37,0,0,0-11,15A35.84,35.84,0,0,0,241.27,325.29Z" transform="translate(-38 -27.53)"/><circle class="cls-31" cx="222.5" cy="229.97" r="27.5"/><path class="cls-29" d="M225.39,288.81c-6.2-5.21-9.41-7.88-10.59-12.48-.46-1.77-1.9-7.35,1.45-12.11,2.55-3.64,7.6-6.41,11.71-5.09,2.33.75,3.53,2.58,5.85,6.21,4,6.35,3.72,9.59,7.46,14.85a29.55,29.55,0,0,0,4.68,5.18c-.2,1.1-1.82,9.56-7,11C235.49,297.28,232.12,294.46,225.39,288.81Z" transform="translate(-38 -27.53)"/><ellipse class="cls-32" cx="239.36" cy="260.47" rx="3.22" ry="1.44" transform="translate(-89.73 433.94) rotate(-82.04)"/><path class="cls-28" d="M265.21,233.88a10.21,10.21,0,0,1,2-7c2.61-3.27,7.4-4.5,12-3a22.37,22.37,0,0,1-3,3c-2.42,2-4.11,2.55-8,5C266.87,232.73,265.81,233.45,265.21,233.88Z" transform="translate(-38 -27.53)"/><path class="cls-28" d="M265.18,233.88a10.1,10.1,0,0,0-2-7c-2.6-3.27-7.4-4.5-12-3a23,23,0,0,0,3,3c2.42,2,4.12,2.55,8,5C263.53,232.73,264.58,233.45,265.18,233.88Z" transform="translate(-38 -27.53)"/></g><g id="lights"><g class="cls-17"><polygon class="cls-33" points="35.44 34.87 25.22 34.71 33.13 31.01 43.35 31.17 35.44 34.87"/><polygon class="cls-34" points="33.4 57.12 23.18 56.96 20.24 47.68 30.46 47.84 33.4 57.12"/><polygon class="cls-35" points="28.91 39.27 18.68 39.12 18.14 29.23 28.36 29.39 28.91 39.27"/><polygon class="cls-36" points="22.21 45.43 11.99 45.27 18.68 39.12 28.91 39.27 22.21 45.43"/><polygon class="cls-37" points="30.46 47.84 20.24 47.68 11.99 45.27 22.21 45.43 30.46 47.84"/><polygon class="cls-38" points="28.36 29.39 35.44 34.87 43.35 31.17 41.03 40.71 46.46 48.31 37.95 48.73 33.4 57.12 30.46 47.84 22.21 45.43 28.91 39.27 28.36 29.39"/></g><g class="cls-17"><polygon class="cls-37" points="111.52 39.95 101.3 39.79 96.43 35.74 106.65 35.9 111.52 39.95"/><polygon class="cls-39" points="105.17 26.05 94.95 25.89 98.33 20.11 108.55 20.27 105.17 26.05"/><polygon class="cls-40" points="101 38.27 90.78 38.11 92.62 31.46 102.84 31.61 101 38.27"/><polygon class="cls-40" points="99.17 26.11 88.95 25.95 94.95 25.89 105.17 26.05 99.17 26.11"/><polygon class="cls-37" points="102.84 31.61 92.62 31.46 88.95 25.95 99.17 26.11 102.84 31.61"/><polygon class="cls-38" points="99.17 26.11 105.17 26.05 108.55 20.27 110.43 26.89 116.19 28.82 111.35 32.97 111.52 39.95 106.65 35.9 101 38.27 102.84 31.61 99.17 26.11"/></g><g class="cls-17"><polygon class="cls-41" points="169.16 50.31 158.94 50.15 163.56 49.53 173.78 49.69 169.16 50.31"/><polygon class="cls-37" points="173.3 59.25 163.07 59.09 158.55 57.88 168.77 58.04 173.3 59.25"/><polygon class="cls-42" points="165.19 51.54 154.97 51.38 155.91 46.09 166.13 46.24 165.19 51.54"/><polygon class="cls-35" points="165.34 61.7 155.12 61.54 154.73 56.16 164.95 56.32 165.34 61.7"/><polygon class="cls-43" points="160.91 53.67 150.69 53.51 154.97 51.38 165.19 51.54 160.91 53.67"/><polygon class="cls-37" points="164.95 56.32 154.73 56.16 150.69 53.51 160.91 53.67 164.95 56.32"/><polygon class="cls-38" points="166.13 46.24 169.16 50.31 173.78 49.69 171.38 54.33 173.3 59.25 168.77 58.04 165.34 61.7 164.95 56.32 160.91 53.67 165.19 51.54 166.13 46.24"/></g><g class="cls-17"><polygon class="cls-37" points="284.93 109.39 292.04 112.89 294.98 114.39 287.87 110.88 284.93 109.39"/><polygon class="cls-44" points="291.19 102 298.3 105.5 294.73 105.7 287.62 102.2 291.19 102"/><polygon class="cls-45" points="282.66 107.47 289.76 110.97 288.38 116.03 281.28 112.53 282.66 107.47"/><polygon class="cls-46" points="286.66 98.15 293.77 101.66 291.43 106.52 284.33 103.02 286.66 98.15"/><polygon class="cls-37" points="280.53 104.66 287.63 108.16 289.76 110.97 282.66 107.47 280.53 104.66"/><polygon class="cls-47" points="284.33 103.02 291.43 106.52 287.63 108.16 280.53 104.66 284.33 103.02"/><polygon class="cls-48" points="294.98 114.39 292.04 112.89 288.38 116.03 289.76 110.97 287.63 108.16 291.43 106.52 293.77 101.66 294.73 105.7 298.3 105.5 295.1 109.64 294.98 114.39"/></g><g class="cls-17"><polygon class="cls-37" points="305.73 173.32 309.28 175.08 310.69 178.71 307.14 176.96 305.73 173.32"/><polygon class="cls-49" points="311.28 162.46 314.84 164.21 311.35 167.83 307.79 166.08 311.28 162.46"/><polygon class="cls-50" points="304.93 169.69 308.48 171.45 305.56 175.92 302.01 174.17 304.93 169.69"/><polygon class="cls-35" points="304.57 165.2 308.13 166.95 308.48 171.45 304.93 169.69 304.57 165.2"/><polygon class="cls-51" points="307.79 166.08 311.35 167.83 308.13 166.95 304.57 165.2 307.79 166.08"/><polygon class="cls-48" points="310.69 178.71 309.28 175.08 305.56 175.92 308.48 171.45 308.13 166.95 311.35 167.83 314.84 164.21 313.91 169.22 316.43 171.47 312.63 173.7 310.69 178.71"/></g><g class="cls-17"><polygon class="cls-52" points="150.63 301.25 154.18 303 150.38 304.7 146.82 302.95 150.63 301.25"/><polygon class="cls-53" points="142.76 309.46 146.31 311.22 146.05 316.03 142.49 314.27 142.76 309.46"/><polygon class="cls-45" points="144.81 299.99 148.37 301.74 147.03 306.8 143.48 305.05 144.81 299.99"/><polygon class="cls-54" points="143.48 305.05 147.03 306.8 143.34 309.79 139.78 308.04 143.48 305.05"/><polygon class="cls-48" points="152.74 311.83 149.22 311.85 146.05 316.03 146.31 311.22 143.34 309.79 147.03 306.8 148.37 301.74 150.38 304.7 154.18 303 151.73 307.82 152.74 311.83"/></g><g class="cls-17"><polygon class="cls-52" points="197.45 96.81 201.01 98.56 193.63 101.88 190.07 100.12 197.45 96.81"/><polygon class="cls-53" points="182.18 112.77 185.73 114.53 185.21 123.87 181.66 122.12 182.18 112.77"/><polygon class="cls-45" points="186.16 94.37 189.71 96.12 187.12 105.95 183.57 104.2 186.16 94.37"/><polygon class="cls-54" points="183.57 104.2 187.12 105.95 179.95 111.76 176.39 110.01 183.57 104.2"/><polygon class="cls-48" points="198.22 115.72 191.37 115.75 185.21 123.87 185.73 114.53 179.95 111.76 187.12 105.95 189.71 96.12 193.63 101.88 201.01 98.56 196.26 107.93 198.22 115.72"/></g></g></svg>
